<?xml version="1.0" encoding="utf-8"?>
<!-- Generator: Adobe Illustrator 18.0.0, SVG Export Plug-In . SVG Version: 6.00 Build 0)  -->
<!DOCTYPE svg PUBLIC "-//W3C//DTD SVG 1.1//EN" "http://www.w3.org/Graphics/SVG/1.1/DTD/svg11.dtd">
<svg version="1.1"
	 id="Layer_1" text-rendering="auto" color-rendering="auto" shape-rendering="auto" image-rendering="auto" color-interpolation="auto"
	 xmlns="http://www.w3.org/2000/svg" xmlns:xlink="http://www.w3.org/1999/xlink" x="0px" y="0px" viewBox="0 0 560 538"
	 enable-background="new 0 0 560 538" xml:space="preserve" width="15cm" height="17cm" preserveAspectRatio="xMidYMin meet">
<g>
	<g text-rendering="geometricPrecision">
		<rect fill="#FFFFFF" width="560" height="538"/>
	</g>
	<g transform="translate(111,2)" text-rendering="geometricPrecision">
		<g>
			<defs>
				<rect id="SVGID_1_" width="236" height="445"/>
			</defs>
			<clipPath id="SVGID_2_">
				<use xlink:href="#SVGID_1_"  overflow="visible"/>
			</clipPath>
			<path clip-path="url(#SVGID_2_)" fill="#F3E7F8" d="M8,0C3.6,0,0,3.6,0,8v427c0,4.4,3.6,8,8,8h218c4.4,0,8-3.6,8-8V8
				c0-4.4-3.6-8-8-8H8z"/>
		</g>
	</g>
	<g transform="translate(111,2)" text-rendering="geometricPrecision">
		<g>
			<defs>
				<rect id="SVGID_3_" width="236" height="445"/>
			</defs>
			<clipPath id="SVGID_4_">
				<use xlink:href="#SVGID_3_"  overflow="visible"/>
			</clipPath>
			<path clip-path="url(#SVGID_4_)" fill="none" stroke="#CC93E1" stroke-linejoin="bevel" stroke-miterlimit="1" d="M8,0
				C3.6,0,0,3.6,0,8v427c0,4.4,3.6,8,8,8h218c4.4,0,8-3.6,8-8V8c0-4.4-3.6-8-8-8H8z"/>
		</g>
	</g>
	<g transform="translate(2,25)" text-rendering="geometricPrecision">
		<g>
			<defs>
				<rect id="SVGID_5_" x="-7" y="-7" width="94" height="400"/>
			</defs>
			<clipPath id="SVGID_6_">
				<use xlink:href="#SVGID_5_"  overflow="visible"/>
			</clipPath>
			<rect clip-path="url(#SVGID_6_)" fill="#7ACFF5" width="75" height="35"/>
		</g>
	</g>
	<g transform="translate(2,25)" text-rendering="geometricPrecision">
		<g>
			<defs>
				<rect id="SVGID_7_" x="-7" y="-7" width="94" height="400"/>
			</defs>
			<clipPath id="SVGID_8_">
				<use xlink:href="#SVGID_7_"  overflow="visible"/>
			</clipPath>

				<rect clip-path="url(#SVGID_8_)" fill="none" stroke="#000000" stroke-linejoin="round" stroke-miterlimit="1" width="75" height="35"/>
		</g>
		<g>
			<defs>
				<rect id="SVGID_9_" x="-7" y="-7" width="94" height="400"/>
			</defs>
			<clipPath id="SVGID_10_">
				<use xlink:href="#SVGID_9_"  overflow="visible"/>
			</clipPath>

				<line clip-path="url(#SVGID_10_)" fill="none" stroke="#000000" stroke-linejoin="bevel" stroke-miterlimit="1" stroke-dasharray="8,3" x1="37" y1="35" x2="37" y2="382"/>
		</g>
	</g>
	<g transform="translate(126,25)" text-rendering="geometricPrecision">
		<g>
			<defs>
				<rect id="SVGID_11_" x="-7" y="-7" width="77" height="400"/>
			</defs>
			<clipPath id="SVGID_12_">
				<use xlink:href="#SVGID_11_"  overflow="visible"/>
			</clipPath>
			<rect clip-path="url(#SVGID_12_)" fill="#7ACFF5" width="58" height="35"/>
		</g>
	</g>
	<g transform="translate(126,25)" text-rendering="geometricPrecision">
		<g>
			<defs>
				<rect id="SVGID_13_" x="-7" y="-7" width="77" height="400"/>
			</defs>
			<clipPath id="SVGID_14_">
				<use xlink:href="#SVGID_13_"  overflow="visible"/>
			</clipPath>

				<rect clip-path="url(#SVGID_14_)" fill="none" stroke="#000000" stroke-linejoin="round" stroke-miterlimit="1" width="58" height="35"/>
		</g>
		<g>
			<defs>
				<rect id="SVGID_15_" x="-7" y="-7" width="77" height="400"/>
			</defs>
			<clipPath id="SVGID_16_">
				<use xlink:href="#SVGID_15_"  overflow="visible"/>
			</clipPath>

				<line clip-path="url(#SVGID_16_)" fill="none" stroke="#000000" stroke-linejoin="bevel" stroke-miterlimit="1" stroke-dasharray="8,3" x1="29" y1="35" x2="29" y2="382"/>
		</g>
	</g>
	<g transform="translate(36,92)" text-rendering="geometricPrecision">
		<g>
			<defs>
				<rect id="SVGID_17_" x="-7" y="-7" width="26" height="313"/>
			</defs>
			<clipPath id="SVGID_18_">
				<use xlink:href="#SVGID_17_"  overflow="visible"/>
			</clipPath>
			<rect clip-path="url(#SVGID_18_)" fill="#7ACFF5" width="8" height="295"/>
		</g>
	</g>
	<g transform="translate(36,92)" text-rendering="geometricPrecision">
		<g>
			<defs>
				<rect id="SVGID_19_" x="-7" y="-7" width="26" height="313"/>
			</defs>
			<clipPath id="SVGID_20_">
				<use xlink:href="#SVGID_19_"  overflow="visible"/>
			</clipPath>

				<rect clip-path="url(#SVGID_20_)" fill="none" stroke="#000000" stroke-linejoin="round" stroke-miterlimit="1" width="8" height="295"/>
		</g>
	</g>
	<g transform="translate(151,92)" text-rendering="geometricPrecision">
		<g>
			<defs>
				<rect id="SVGID_21_" x="-7" y="-7" width="26" height="313"/>
			</defs>
			<clipPath id="SVGID_22_">
				<use xlink:href="#SVGID_21_"  overflow="visible"/>
			</clipPath>
			<rect clip-path="url(#SVGID_22_)" fill="#7ACFF5" width="8" height="295"/>
		</g>
	</g>
	<g transform="translate(151,92)" text-rendering="geometricPrecision">
		<g>
			<defs>
				<rect id="SVGID_23_" x="-7" y="-7" width="26" height="313"/>
			</defs>
			<clipPath id="SVGID_24_">
				<use xlink:href="#SVGID_23_"  overflow="visible"/>
			</clipPath>

				<rect clip-path="url(#SVGID_24_)" fill="none" stroke="#000000" stroke-linejoin="round" stroke-miterlimit="1" width="8" height="295"/>
		</g>
	</g>
	<g transform="translate(251,150)" text-rendering="geometricPrecision">
		<g>
			<defs>
				<rect id="SVGID_25_" x="-7" y="-7" width="89" height="275"/>
			</defs>
			<clipPath id="SVGID_26_">
				<use xlink:href="#SVGID_25_"  overflow="visible"/>
			</clipPath>
			<rect clip-path="url(#SVGID_26_)" fill="#7ACFF5" width="70" height="35"/>
		</g>
	</g>
	<g transform="translate(251,150)" text-rendering="geometricPrecision">
		<g>
			<defs>
				<rect id="SVGID_27_" x="-7" y="-7" width="89" height="275"/>
			</defs>
			<clipPath id="SVGID_28_">
				<use xlink:href="#SVGID_27_"  overflow="visible"/>
			</clipPath>

				<rect clip-path="url(#SVGID_28_)" fill="none" stroke="#000000" stroke-linejoin="round" stroke-miterlimit="1" width="70" height="35"/>
		</g>
		<g>
			<defs>
				<rect id="SVGID_29_" x="-7" y="-7" width="89" height="275"/>
			</defs>
			<clipPath id="SVGID_30_">
				<use xlink:href="#SVGID_29_"  overflow="visible"/>
			</clipPath>

				<line clip-path="url(#SVGID_30_)" fill="none" stroke="#000000" stroke-linejoin="bevel" stroke-miterlimit="1" stroke-dasharray="8,3" x1="35" y1="35" x2="35" y2="257"/>
		</g>
	</g>
	<g transform="translate(282,250)" text-rendering="geometricPrecision">
		<g>
			<defs>
				<rect id="SVGID_31_" x="-7" y="-7" width="26" height="122"/>
			</defs>
			<clipPath id="SVGID_32_">
				<use xlink:href="#SVGID_31_"  overflow="visible"/>
			</clipPath>
			<rect clip-path="url(#SVGID_32_)" fill="#7ACFF5" width="8" height="104"/>
		</g>
	</g>
	<g transform="translate(282,250)" text-rendering="geometricPrecision">
		<g>
			<defs>
				<rect id="SVGID_33_" x="-7" y="-7" width="26" height="122"/>
			</defs>
			<clipPath id="SVGID_34_">
				<use xlink:href="#SVGID_33_"  overflow="visible"/>
			</clipPath>

				<rect clip-path="url(#SVGID_34_)" fill="none" stroke="#000000" stroke-linejoin="round" stroke-miterlimit="1" width="8" height="104"/>
		</g>
	</g>
	<g transform="translate(432,25)" text-rendering="geometricPrecision">
		<g>
			<defs>
				<rect id="SVGID_35_" x="-7" y="-7" width="68" height="400"/>
			</defs>
			<clipPath id="SVGID_36_">
				<use xlink:href="#SVGID_35_"  overflow="visible"/>
			</clipPath>
			<rect clip-path="url(#SVGID_36_)" fill="#7ACFF5" width="49" height="35"/>
		</g>
	</g>
	<g transform="translate(432,25)" text-rendering="geometricPrecision">
		<g>
			<defs>
				<rect id="SVGID_37_" x="-7" y="-7" width="68" height="400"/>
			</defs>
			<clipPath id="SVGID_38_">
				<use xlink:href="#SVGID_37_"  overflow="visible"/>
			</clipPath>

				<rect clip-path="url(#SVGID_38_)" fill="none" stroke="#000000" stroke-linejoin="round" stroke-miterlimit="1" width="49" height="35"/>
		</g>
		<g>
			<defs>
				<rect id="SVGID_39_" x="-7" y="-7" width="68" height="400"/>
			</defs>
			<clipPath id="SVGID_40_">
				<use xlink:href="#SVGID_39_"  overflow="visible"/>
			</clipPath>

				<line clip-path="url(#SVGID_40_)" fill="none" stroke="#000000" stroke-linejoin="bevel" stroke-miterlimit="1" stroke-dasharray="8,3" x1="24" y1="35" x2="24" y2="382"/>
		</g>
	</g>
	<g transform="translate(453,264)" text-rendering="geometricPrecision">
		<g>
			<defs>
				<rect id="SVGID_41_" x="-7" y="-7" width="26" height="30"/>
			</defs>
			<clipPath id="SVGID_42_">
				<use xlink:href="#SVGID_41_"  overflow="visible"/>
			</clipPath>
			<rect clip-path="url(#SVGID_42_)" fill="#7ACFF5" width="8" height="12"/>
		</g>
	</g>
	<g transform="translate(453,264)" text-rendering="geometricPrecision">
		<g>
			<defs>
				<rect id="SVGID_43_" x="-7" y="-7" width="26" height="30"/>
			</defs>
			<clipPath id="SVGID_44_">
				<use xlink:href="#SVGID_43_"  overflow="visible"/>
			</clipPath>

				<rect clip-path="url(#SVGID_44_)" fill="none" stroke="#000000" stroke-linejoin="round" stroke-miterlimit="1" width="8" height="12"/>
		</g>
	</g>
	<g transform="translate(512,25)" text-rendering="geometricPrecision">
		<g>
			<defs>
				<rect id="SVGID_45_" x="-7" y="-7" width="62" height="400"/>
			</defs>
			<clipPath id="SVGID_46_">
				<use xlink:href="#SVGID_45_"  overflow="visible"/>
			</clipPath>
			<rect clip-path="url(#SVGID_46_)" fill="#7ACFF5" width="43" height="35"/>
		</g>
	</g>
	<g transform="translate(512,25)" text-rendering="geometricPrecision">
		<g>
			<defs>
				<rect id="SVGID_47_" x="-7" y="-7" width="62" height="400"/>
			</defs>
			<clipPath id="SVGID_48_">
				<use xlink:href="#SVGID_47_"  overflow="visible"/>
			</clipPath>

				<rect clip-path="url(#SVGID_48_)" fill="none" stroke="#000000" stroke-linejoin="round" stroke-miterlimit="1" width="43" height="35"/>
		</g>
		<g>
			<defs>
				<rect id="SVGID_49_" x="-7" y="-7" width="62" height="400"/>
			</defs>
			<clipPath id="SVGID_50_">
				<use xlink:href="#SVGID_49_"  overflow="visible"/>
			</clipPath>

				<line clip-path="url(#SVGID_50_)" fill="none" stroke="#000000" stroke-linejoin="bevel" stroke-miterlimit="1" stroke-dasharray="8,3" x1="21" y1="35" x2="21" y2="382"/>
		</g>
	</g>
	<g transform="translate(530,342)" text-rendering="geometricPrecision">
		<g>
			<defs>
				<rect id="SVGID_51_" x="-7" y="-7" width="26" height="30"/>
			</defs>
			<clipPath id="SVGID_52_">
				<use xlink:href="#SVGID_51_"  overflow="visible"/>
			</clipPath>
			<rect clip-path="url(#SVGID_52_)" fill="#7ACFF5" width="8" height="12"/>
		</g>
	</g>
	<g transform="translate(530,342)" text-rendering="geometricPrecision">
		<g>
			<defs>
				<rect id="SVGID_53_" x="-7" y="-7" width="26" height="30"/>
			</defs>
			<clipPath id="SVGID_54_">
				<use xlink:href="#SVGID_53_"  overflow="visible"/>
			</clipPath>

				<rect clip-path="url(#SVGID_54_)" fill="none" stroke="#000000" stroke-linejoin="round" stroke-miterlimit="1" width="8" height="12"/>
		</g>
	</g>
	<g transform="translate(149,488)" text-rendering="geometricPrecision">
		<g>
			<defs>
				<rect id="SVGID_55_" x="-7" y="-7" width="112" height="64"/>
			</defs>
			<clipPath id="SVGID_56_">
				<use xlink:href="#SVGID_55_"  overflow="visible"/>
			</clipPath>
			<polygon clip-path="url(#SVGID_56_)" fill="#7ACFF5" points="0,0 78,0 93,15 78,15 78,0 93,15 93,45 0,45 			"/>
		</g>
	</g>
	<g transform="translate(149,488)" text-rendering="geometricPrecision">
		<g>
			<defs>
				<rect id="SVGID_57_" x="-7" y="-7" width="112" height="64"/>
			</defs>
			<clipPath id="SVGID_58_">
				<use xlink:href="#SVGID_57_"  overflow="visible"/>
			</clipPath>
			<polygon clip-path="url(#SVGID_58_)" fill="none" stroke="#000000" stroke-linejoin="round" stroke-miterlimit="1" points="0,0
				78,0 93,15 78,15 78,0 93,15 93,45 0,45 			"/>
		</g>
	</g>
	<g transform="translate(149,488)" text-rendering="geometricPrecision">
		<g>
			<defs>
				<rect id="SVGID_59_" width="79" height="46"/>
			</defs>
			<clipPath id="SVGID_60_">
				<use xlink:href="#SVGID_59_"  overflow="visible"/>
			</clipPath>
			<path clip-path="url(#SVGID_60_)" d="M3.9,14.4V6.5h5.3v0.9H4.9v2.4h3.7v0.9H4.9v3.6H3.9z M9.7,14.4V8.7h0.9v0.9
				c0.2-0.4,0.4-0.7,0.6-0.8c0.2-0.1,0.4-0.2,0.6-0.2c0.3,0,0.7,0.1,1,0.3l-0.3,0.9c-0.2-0.1-0.5-0.2-0.7-0.2
				c-0.2,0-0.4,0.1-0.6,0.2c-0.2,0.1-0.3,0.3-0.4,0.5c-0.1,0.3-0.2,0.7-0.2,1.1v3H9.7z M13.4,11.6c0-1.1,0.3-1.8,0.9-2.3
				c0.5-0.4,1.1-0.6,1.8-0.6c0.8,0,1.4,0.3,1.9,0.8c0.5,0.5,0.7,1.2,0.7,2.1c0,0.7-0.1,1.3-0.3,1.7s-0.5,0.7-1,1
				c-0.4,0.2-0.9,0.3-1.4,0.3c-0.8,0-1.5-0.3-1.9-0.8C13.6,13.3,13.4,12.5,13.4,11.6z M14.4,11.6c0,0.7,0.2,1.3,0.5,1.6
				c0.3,0.4,0.7,0.5,1.2,0.5c0.5,0,0.9-0.2,1.2-0.5c0.3-0.4,0.5-0.9,0.5-1.7c0-0.7-0.2-1.2-0.5-1.6c-0.3-0.4-0.7-0.5-1.2-0.5
				c-0.5,0-0.9,0.2-1.2,0.5C14.5,10.3,14.4,10.8,14.4,11.6z M19.7,14.4V8.7h0.9v0.8c0.4-0.6,1-0.9,1.8-0.9c0.3,0,0.7,0.1,1,0.2
				c0.3,0.1,0.5,0.3,0.6,0.5c0.1,0.2,0.2,0.4,0.3,0.7c0,0.2,0,0.5,0,1v3.5h-1V11c0-0.4,0-0.7-0.1-0.9c-0.1-0.2-0.2-0.3-0.4-0.5
				c-0.2-0.1-0.4-0.2-0.7-0.2c-0.4,0-0.8,0.1-1.1,0.4c-0.3,0.3-0.5,0.8-0.5,1.5v3.1H19.7z M27.8,13.6l0.1,0.8
				c-0.3,0.1-0.5,0.1-0.7,0.1c-0.4,0-0.6-0.1-0.8-0.2c-0.2-0.1-0.3-0.3-0.4-0.4s-0.1-0.6-0.1-1.1V9.5h-0.7V8.7h0.7V7.3l1-0.6v2h1
				v0.8h-1v3.3c0,0.3,0,0.4,0.1,0.5s0.1,0.1,0.2,0.2c0.1,0,0.2,0.1,0.3,0.1C27.5,13.6,27.7,13.6,27.8,13.6z"/>
		</g>
		<g>
			<defs>
				<rect id="SVGID_61_" width="79" height="46"/>
			</defs>
			<clipPath id="SVGID_62_">
				<use xlink:href="#SVGID_61_"  overflow="visible"/>
			</clipPath>
			<path clip-path="url(#SVGID_62_)" d="M9.5,26.7l1,0.3c-0.2,0.9-0.6,1.5-1.2,2c-0.6,0.5-1.3,0.7-2.1,0.7c-0.9,0-1.5-0.2-2.1-0.5
				c-0.5-0.3-0.9-0.9-1.2-1.5c-0.3-0.7-0.4-1.4-0.4-2.1c0-0.8,0.2-1.5,0.5-2.1c0.3-0.6,0.8-1.1,1.3-1.4c0.6-0.3,1.2-0.5,1.9-0.5
				c0.8,0,1.5,0.2,2,0.6c0.5,0.4,0.9,1,1.1,1.7l-1,0.3c-0.2-0.6-0.4-1-0.8-1.3c-0.3-0.3-0.8-0.4-1.3-0.4c-0.6,0-1.1,0.1-1.5,0.4
				C5.3,23,5,23.4,4.9,23.9c-0.2,0.5-0.2,1-0.2,1.5c0,0.7,0.1,1.3,0.3,1.8c0.2,0.5,0.5,0.9,0.9,1.1c0.4,0.3,0.9,0.4,1.3,0.4
				c0.6,0,1.1-0.2,1.5-0.5C9,27.8,9.3,27.3,9.5,26.7z M10.4,26.6c0-1.1,0.3-1.8,0.9-2.3c0.5-0.4,1.1-0.6,1.8-0.6
				c0.8,0,1.4,0.3,1.9,0.8c0.5,0.5,0.7,1.2,0.7,2.1c0,0.7-0.1,1.3-0.3,1.7s-0.5,0.7-1,1c-0.4,0.2-0.9,0.3-1.4,0.3
				c-0.8,0-1.5-0.3-1.9-0.8C10.6,28.3,10.4,27.5,10.4,26.6z M11.4,26.6c0,0.7,0.2,1.3,0.5,1.6c0.3,0.4,0.7,0.5,1.2,0.5
				c0.5,0,0.9-0.2,1.2-0.5c0.3-0.4,0.5-0.9,0.5-1.7c0-0.7-0.2-1.2-0.5-1.6c-0.3-0.4-0.7-0.5-1.2-0.5c-0.5,0-0.9,0.2-1.2,0.5
				C11.5,25.3,11.4,25.8,11.4,26.6z M16.7,29.4v-5.7h0.9v0.8c0.4-0.6,1-0.9,1.8-0.9c0.3,0,0.7,0.1,1,0.2c0.3,0.1,0.5,0.3,0.6,0.5
				c0.1,0.2,0.2,0.4,0.3,0.7c0,0.2,0,0.5,0,1v3.5h-1V26c0-0.4,0-0.7-0.1-0.9c-0.1-0.2-0.2-0.3-0.4-0.5c-0.2-0.1-0.4-0.2-0.7-0.2
				c-0.4,0-0.8,0.1-1.1,0.4c-0.3,0.3-0.5,0.8-0.5,1.5v3.1H16.7z M24.8,28.6l0.1,0.8c-0.3,0.1-0.5,0.1-0.7,0.1
				c-0.4,0-0.6-0.1-0.8-0.2s-0.3-0.3-0.4-0.4s-0.1-0.6-0.1-1.1v-3.3h-0.7v-0.8h0.7v-1.4l1-0.6v2h1v0.8h-1v3.3c0,0.3,0,0.4,0.1,0.5
				s0.1,0.1,0.2,0.2c0.1,0,0.2,0.1,0.3,0.1C24.5,28.6,24.7,28.6,24.8,28.6z M25.7,29.4v-5.7h0.9v0.9c0.2-0.4,0.4-0.7,0.6-0.8
				c0.2-0.1,0.4-0.2,0.6-0.2c0.3,0,0.7,0.1,1,0.3l-0.3,0.9c-0.2-0.1-0.5-0.2-0.7-0.2c-0.2,0-0.4,0.1-0.6,0.2
				c-0.2,0.1-0.3,0.3-0.4,0.5c-0.1,0.3-0.2,0.7-0.2,1.1v3H25.7z M29.4,26.6c0-1.1,0.3-1.8,0.9-2.3c0.5-0.4,1.1-0.6,1.8-0.6
				c0.8,0,1.4,0.3,1.9,0.8c0.5,0.5,0.7,1.2,0.7,2.1c0,0.7-0.1,1.3-0.3,1.7s-0.5,0.7-1,1c-0.4,0.2-0.9,0.3-1.4,0.3
				c-0.8,0-1.5-0.3-1.9-0.8C29.6,28.3,29.4,27.5,29.4,26.6z M30.4,26.6c0,0.7,0.2,1.3,0.5,1.6c0.3,0.4,0.7,0.5,1.2,0.5
				c0.5,0,0.9-0.2,1.2-0.5s0.5-0.9,0.5-1.7c0-0.7-0.2-1.2-0.5-1.6c-0.3-0.4-0.7-0.5-1.2-0.5c-0.5,0-0.9,0.2-1.2,0.5
				C30.5,25.3,30.4,25.8,30.4,26.6z M35.7,29.4v-7.9h1v7.9H35.7z M37.7,29.4v-7.9h1v7.9H37.7z M43.6,27.6l1,0.1
				c-0.2,0.6-0.4,1-0.9,1.4c-0.4,0.3-1,0.5-1.6,0.5c-0.8,0-1.5-0.3-2-0.8c-0.5-0.5-0.7-1.2-0.7-2.2c0-1,0.2-1.7,0.7-2.2
				c0.5-0.5,1.1-0.8,1.9-0.8c0.8,0,1.4,0.3,1.9,0.8c0.5,0.5,0.7,1.2,0.7,2.2c0,0.1,0,0.1,0,0.3h-4.3c0,0.6,0.2,1.1,0.5,1.4
				c0.3,0.3,0.7,0.5,1.2,0.5c0.4,0,0.7-0.1,0.9-0.3C43.3,28.3,43.5,28,43.6,27.6z M40.5,26h3.2c0-0.5-0.2-0.8-0.4-1.1
				c-0.3-0.4-0.7-0.5-1.2-0.5c-0.4,0-0.8,0.1-1.1,0.4C40.7,25.1,40.5,25.5,40.5,26z M45.7,29.4v-5.7h0.9v0.9
				c0.2-0.4,0.4-0.7,0.6-0.8c0.2-0.1,0.4-0.2,0.6-0.2c0.3,0,0.7,0.1,1,0.3l-0.3,0.9c-0.2-0.1-0.5-0.2-0.7-0.2
				c-0.2,0-0.4,0.1-0.6,0.2c-0.2,0.1-0.3,0.3-0.4,0.5c-0.1,0.3-0.2,0.7-0.2,1.1v3H45.7z"/>
		</g>
	</g>
	<g transform="translate(297,32)" text-rendering="geometricPrecision">
		<g>
			<defs>
				<rect id="SVGID_63_" x="-7" y="-7" width="123" height="84"/>
			</defs>
			<clipPath id="SVGID_64_">
				<use xlink:href="#SVGID_63_"  overflow="visible"/>
			</clipPath>
			<polygon clip-path="url(#SVGID_64_)" fill="#7ACFF5" points="0,0 89,0 104,15 89,15 89,0 104,15 104,65 0,65 			"/>
		</g>
	</g>
	<g transform="translate(297,32)" text-rendering="geometricPrecision">
		<g>
			<defs>
				<rect id="SVGID_65_" x="-7" y="-7" width="123" height="84"/>
			</defs>
			<clipPath id="SVGID_66_">
				<use xlink:href="#SVGID_65_"  overflow="visible"/>
			</clipPath>
			<polygon clip-path="url(#SVGID_66_)" fill="none" stroke="#000000" stroke-linejoin="round" stroke-miterlimit="1" points="0,0
				89,0 104,15 89,15 89,0 104,15 104,65 0,65 			"/>
		</g>
	</g>
	<g transform="translate(297,32)" text-rendering="geometricPrecision">
		<g>
			<defs>
				<rect id="SVGID_67_" width="90" height="66"/>
			</defs>
			<clipPath id="SVGID_68_">
				<use xlink:href="#SVGID_67_"  overflow="visible"/>
			</clipPath>
			<path clip-path="url(#SVGID_68_)" d="M3.5,10.6c0-1.3,0.4-2.3,1.1-3.1s1.6-1.1,2.7-1.1c0.7,0,1.4,0.2,2,0.5
				c0.6,0.3,1,0.8,1.3,1.5c0.3,0.6,0.5,1.3,0.5,2.1c0,0.8-0.2,1.5-0.5,2.1c-0.3,0.6-0.8,1.1-1.4,1.4c-0.6,0.3-1.2,0.5-1.9,0.5
				c-0.7,0-1.4-0.2-2-0.5s-1-0.8-1.3-1.5C3.7,11.9,3.5,11.3,3.5,10.6z M4.6,10.6c0,0.9,0.3,1.7,0.8,2.2s1.2,0.8,1.9,0.8
				c0.8,0,1.4-0.3,1.9-0.8c0.5-0.6,0.8-1.3,0.8-2.4c0-0.6-0.1-1.2-0.3-1.7C9.5,8.3,9.1,8,8.7,7.7C8.3,7.4,7.8,7.3,7.3,7.3
				c-0.7,0-1.4,0.3-1.9,0.8C4.9,8.6,4.6,9.4,4.6,10.6z M12,14.4v-5h-0.8V8.7H12V8.1c0-0.4,0-0.7,0.1-0.9c0.1-0.3,0.3-0.5,0.5-0.6
				c0.2-0.2,0.6-0.2,1-0.2c0.3,0,0.6,0,0.9,0.1l-0.1,0.8c-0.2,0-0.4-0.1-0.6-0.1c-0.3,0-0.5,0.1-0.6,0.2c-0.1,0.1-0.2,0.4-0.2,0.7
				v0.5H14v0.8h-1.1v5H12z M17.8,13.6l0.1,0.8c-0.3,0.1-0.5,0.1-0.7,0.1c-0.4,0-0.6-0.1-0.8-0.2c-0.2-0.1-0.3-0.3-0.4-0.4
				c-0.1-0.2-0.1-0.6-0.1-1.1V9.5h-0.7V8.7h0.7V7.3l1-0.6v2h1v0.8h-1v3.3c0,0.3,0,0.4,0.1,0.5s0.1,0.1,0.2,0.2
				c0.1,0,0.2,0.1,0.3,0.1C17.5,13.6,17.7,13.6,17.8,13.6z M22.6,12.6l1,0.1c-0.2,0.6-0.4,1-0.9,1.4c-0.4,0.3-1,0.5-1.6,0.5
				c-0.8,0-1.5-0.3-2-0.8c-0.5-0.5-0.7-1.2-0.7-2.2c0-1,0.2-1.7,0.7-2.2c0.5-0.5,1.1-0.8,1.9-0.8c0.8,0,1.4,0.3,1.9,0.8
				c0.5,0.5,0.7,1.2,0.7,2.2c0,0.1,0,0.1,0,0.3h-4.3c0,0.6,0.2,1.1,0.5,1.4c0.3,0.3,0.7,0.5,1.2,0.5c0.4,0,0.7-0.1,0.9-0.3
				C22.3,13.3,22.5,13,22.6,12.6z M19.5,11h3.2c0-0.5-0.2-0.8-0.4-1.1c-0.3-0.4-0.7-0.5-1.2-0.5c-0.4,0-0.8,0.1-1.1,0.4
				S19.5,10.5,19.5,11z M24.7,14.4V8.7h0.9v0.8c0.4-0.6,1-0.9,1.8-0.9c0.3,0,0.7,0.1,1,0.2c0.3,0.1,0.5,0.3,0.6,0.5
				c0.1,0.2,0.2,0.4,0.3,0.7c0,0.2,0,0.5,0,1v3.5h-1V11c0-0.4,0-0.7-0.1-0.9c-0.1-0.2-0.2-0.3-0.4-0.5c-0.2-0.1-0.4-0.2-0.7-0.2
				c-0.4,0-0.8,0.1-1.1,0.4c-0.3,0.3-0.5,0.8-0.5,1.5v3.1H24.7z M33.7,7.7V6.5h1v1.1H33.7z M33.7,14.4V8.7h1v5.7H33.7z M39.4,14.4
				v-0.7c-0.4,0.6-0.9,0.8-1.6,0.8c-0.4,0-0.9-0.1-1.3-0.4c-0.4-0.3-0.7-0.6-0.9-1c-0.2-0.4-0.3-1-0.3-1.5c0-0.6,0.1-1.1,0.3-1.6
				c0.2-0.5,0.5-0.8,0.9-1.1s0.8-0.4,1.3-0.4c0.3,0,0.7,0.1,0.9,0.2C39,9,39.2,9.1,39.4,9.4V6.5h1v7.9H39.4z M36.4,11.6
				c0,0.7,0.2,1.3,0.5,1.6c0.3,0.4,0.7,0.5,1.1,0.5c0.4,0,0.8-0.2,1.1-0.5c0.3-0.3,0.4-0.9,0.4-1.6c0-0.8-0.1-1.4-0.4-1.7
				c-0.3-0.4-0.7-0.5-1.1-0.5c-0.4,0-0.8,0.2-1.1,0.5C36.5,10.3,36.4,10.8,36.4,11.6z M45.6,12.6l1,0.1c-0.2,0.6-0.4,1-0.9,1.4
				c-0.4,0.3-1,0.5-1.6,0.5c-0.8,0-1.5-0.3-2-0.8c-0.5-0.5-0.7-1.2-0.7-2.2c0-1,0.2-1.7,0.7-2.2c0.5-0.5,1.1-0.8,1.9-0.8
				c0.8,0,1.4,0.3,1.9,0.8c0.5,0.5,0.7,1.2,0.7,2.2c0,0.1,0,0.1,0,0.3h-4.3c0,0.6,0.2,1.1,0.5,1.4c0.3,0.3,0.7,0.5,1.2,0.5
				c0.4,0,0.7-0.1,0.9-0.3C45.3,13.3,45.5,13,45.6,12.6z M42.5,11h3.2c0-0.5-0.2-0.8-0.4-1.1c-0.3-0.4-0.7-0.5-1.2-0.5
				c-0.4,0-0.8,0.1-1.1,0.4C42.7,10.1,42.5,10.5,42.5,11z M47.7,14.4V8.7h0.9v0.8c0.4-0.6,1-0.9,1.8-0.9c0.3,0,0.7,0.1,1,0.2
				c0.3,0.1,0.5,0.3,0.6,0.5c0.1,0.2,0.2,0.4,0.3,0.7c0,0.2,0,0.5,0,1v3.5h-1V11c0-0.4,0-0.7-0.1-0.9c-0.1-0.2-0.2-0.3-0.4-0.5
				c-0.2-0.1-0.4-0.2-0.7-0.2c-0.4,0-0.8,0.1-1.1,0.4c-0.3,0.3-0.5,0.8-0.5,1.5v3.1H47.7z M55.8,13.6l0.1,0.8
				c-0.3,0.1-0.5,0.1-0.7,0.1c-0.4,0-0.6-0.1-0.8-0.2c-0.2-0.1-0.3-0.3-0.4-0.4s-0.1-0.6-0.1-1.1V9.5h-0.7V8.7h0.7V7.3l1-0.6v2h1
				v0.8h-1v3.3c0,0.3,0,0.4,0.1,0.5s0.1,0.1,0.2,0.2c0.1,0,0.2,0.1,0.3,0.1C55.5,13.6,55.7,13.6,55.8,13.6z M56.7,7.7V6.5h1v1.1
				H56.7z M56.7,14.4V8.7h1v5.7H56.7z M59,14.4v-5h-0.8V8.7H59V8.1c0-0.4,0-0.7,0.1-0.9c0.1-0.3,0.3-0.5,0.5-0.6
				c0.2-0.2,0.6-0.2,1-0.2c0.3,0,0.6,0,0.9,0.1l-0.1,0.8c-0.2,0-0.4-0.1-0.6-0.1c-0.3,0-0.5,0.1-0.6,0.2c-0.1,0.1-0.2,0.4-0.2,0.7
				v0.5H61v0.8h-1.1v5H59z M62.7,7.7V6.5h1v1.1H62.7z M62.7,14.4V8.7h1v5.7H62.7z M68.6,12.6l1,0.1c-0.2,0.6-0.4,1-0.9,1.4
				c-0.4,0.3-1,0.5-1.6,0.5c-0.8,0-1.5-0.3-2-0.8c-0.5-0.5-0.7-1.2-0.7-2.2c0-1,0.2-1.7,0.7-2.2c0.5-0.5,1.1-0.8,1.9-0.8
				c0.8,0,1.4,0.3,1.9,0.8c0.5,0.5,0.7,1.2,0.7,2.2c0,0.1,0,0.1,0,0.3h-4.3c0,0.6,0.2,1.1,0.5,1.4c0.3,0.3,0.7,0.5,1.2,0.5
				c0.4,0,0.7-0.1,0.9-0.3C68.3,13.3,68.5,13,68.6,12.6z M65.5,11h3.2c0-0.5-0.2-0.8-0.4-1.1c-0.3-0.4-0.7-0.5-1.2-0.5
				c-0.4,0-0.8,0.1-1.1,0.4C65.7,10.1,65.5,10.5,65.5,11z M74.4,14.4v-0.7c-0.4,0.6-0.9,0.8-1.6,0.8c-0.4,0-0.9-0.1-1.3-0.4
				c-0.4-0.3-0.7-0.6-0.9-1c-0.2-0.4-0.3-1-0.3-1.5c0-0.6,0.1-1.1,0.3-1.6c0.2-0.5,0.5-0.8,0.9-1.1s0.8-0.4,1.3-0.4
				c0.3,0,0.7,0.1,0.9,0.2C74,9,74.2,9.1,74.4,9.4V6.5h1v7.9H74.4z M71.4,11.6c0,0.7,0.2,1.3,0.5,1.6c0.3,0.4,0.7,0.5,1.1,0.5
				c0.4,0,0.8-0.2,1.1-0.5c0.3-0.3,0.4-0.9,0.4-1.6c0-0.8-0.1-1.4-0.4-1.7c-0.3-0.4-0.7-0.5-1.1-0.5c-0.4,0-0.8,0.2-1.1,0.5
				C71.5,10.3,71.4,10.8,71.4,11.6z M79.7,7.7V6.5h1v1.1H79.7z M79.7,14.4V8.7h1v5.7H79.7z M81.7,14.4V8.7h0.9v0.8
				c0.4-0.6,1-0.9,1.8-0.9c0.3,0,0.7,0.1,1,0.2c0.3,0.1,0.5,0.3,0.6,0.5c0.1,0.2,0.2,0.4,0.3,0.7c0,0.2,0,0.5,0,1v3.5h-1V11
				c0-0.4,0-0.7-0.1-0.9c-0.1-0.2-0.2-0.3-0.4-0.5c-0.2-0.1-0.4-0.2-0.7-0.2c-0.4,0-0.8,0.1-1.1,0.4c-0.3,0.3-0.5,0.8-0.5,1.5v3.1
				H81.7z"/>
		</g>
		<g>
			<defs>
				<rect id="SVGID_69_" width="90" height="66"/>
			</defs>
			<clipPath id="SVGID_70_">
				<use xlink:href="#SVGID_69_"  overflow="visible"/>
			</clipPath>
			<path clip-path="url(#SVGID_70_)" d="M4,29.4v-5H3.1v-0.8H4v-0.6c0-0.4,0-0.7,0.1-0.9c0.1-0.3,0.3-0.5,0.5-0.6
				c0.2-0.2,0.6-0.2,1-0.2c0.3,0,0.6,0,0.9,0.1l-0.1,0.8c-0.2,0-0.4-0.1-0.6-0.1c-0.3,0-0.5,0.1-0.6,0.2c-0.1,0.1-0.2,0.4-0.2,0.7
				v0.5H6v0.8H4.9v5H4z M7.7,29.4v-5.7h0.9v0.9c0.2-0.4,0.4-0.7,0.6-0.8c0.2-0.1,0.4-0.2,0.6-0.2c0.3,0,0.7,0.1,1,0.3l-0.3,0.9
				c-0.2-0.1-0.5-0.2-0.7-0.2c-0.2,0-0.4,0.1-0.6,0.2s-0.3,0.3-0.4,0.5c-0.1,0.3-0.2,0.7-0.2,1.1v3H7.7z M15.5,28.7
				c-0.4,0.3-0.7,0.5-1,0.6c-0.3,0.1-0.7,0.2-1.1,0.2c-0.6,0-1.1-0.2-1.4-0.5s-0.5-0.7-0.5-1.2c0-0.3,0.1-0.5,0.2-0.8
				c0.1-0.2,0.3-0.4,0.5-0.6c0.2-0.1,0.4-0.2,0.7-0.3c0.2-0.1,0.5-0.1,0.9-0.1c0.8-0.1,1.4-0.2,1.7-0.3c0-0.1,0-0.2,0-0.3
				c0-0.4-0.1-0.7-0.3-0.8c-0.2-0.2-0.6-0.3-1.1-0.3c-0.5,0-0.8,0.1-1,0.2c-0.2,0.2-0.4,0.4-0.5,0.8l-1-0.1c0.1-0.4,0.2-0.7,0.4-1
				c0.2-0.3,0.5-0.4,0.9-0.6c0.4-0.1,0.8-0.2,1.3-0.2c0.5,0,0.9,0.1,1.2,0.2c0.3,0.1,0.5,0.3,0.7,0.4c0.1,0.2,0.2,0.4,0.3,0.6
				c0,0.2,0,0.5,0,0.9V27c0,0.9,0,1.5,0.1,1.7c0,0.2,0.1,0.5,0.3,0.7h-1C15.5,29.2,15.5,29,15.5,28.7z M15.4,26.6
				c-0.3,0.1-0.9,0.3-1.6,0.4c-0.4,0.1-0.7,0.1-0.8,0.2c-0.2,0.1-0.3,0.2-0.4,0.3c-0.1,0.1-0.1,0.3-0.1,0.5c0,0.3,0.1,0.5,0.3,0.6
				c0.2,0.2,0.5,0.3,0.9,0.3c0.4,0,0.7-0.1,1-0.3s0.5-0.4,0.6-0.7c0.1-0.2,0.1-0.5,0.1-1V26.6z M17.7,29.4v-5.7h0.9v0.8
				c0.2-0.3,0.4-0.5,0.7-0.7c0.3-0.2,0.6-0.3,1-0.3c0.4,0,0.8,0.1,1,0.3c0.3,0.2,0.5,0.4,0.6,0.7c0.4-0.7,1-1,1.8-1
				c0.6,0,1,0.2,1.3,0.5c0.3,0.3,0.5,0.8,0.5,1.4v3.9h-1v-3.6c0-0.4,0-0.7-0.1-0.8c-0.1-0.2-0.2-0.3-0.3-0.4
				c-0.2-0.1-0.4-0.2-0.6-0.2c-0.4,0-0.7,0.1-1,0.4c-0.3,0.3-0.4,0.7-0.4,1.3v3.3h-1v-3.7c0-0.4-0.1-0.7-0.2-1
				c-0.2-0.2-0.4-0.3-0.8-0.3c-0.3,0-0.5,0.1-0.8,0.2c-0.2,0.1-0.4,0.4-0.5,0.6c-0.1,0.3-0.2,0.7-0.2,1.2v3H17.7z M29.6,27.6l1,0.1
				c-0.2,0.6-0.4,1-0.9,1.4c-0.4,0.3-1,0.5-1.6,0.5c-0.8,0-1.5-0.3-2-0.8c-0.5-0.5-0.7-1.2-0.7-2.2c0-1,0.2-1.7,0.7-2.2
				c0.5-0.5,1.1-0.8,1.9-0.8c0.8,0,1.4,0.3,1.9,0.8c0.5,0.5,0.7,1.2,0.7,2.2c0,0.1,0,0.1,0,0.3h-4.3c0,0.6,0.2,1.1,0.5,1.4
				c0.3,0.3,0.7,0.5,1.2,0.5c0.4,0,0.7-0.1,0.9-0.3C29.3,28.3,29.5,28,29.6,27.6z M26.5,26h3.2c0-0.5-0.2-0.8-0.4-1.1
				c-0.3-0.4-0.7-0.5-1.2-0.5c-0.4,0-0.8,0.1-1.1,0.4S26.5,25.5,26.5,26z M32.8,29.4L31,23.7h1l0.9,3.3l0.3,1.2
				c0-0.1,0.1-0.5,0.3-1.2l0.9-3.3h1l0.9,3.3l0.3,1.1l0.3-1.1l1-3.3h0.9l-1.8,5.7h-1L35.2,26l-0.2-1l-1.2,4.4H32.8z M41.4,26.6
				c0-1.1,0.3-1.8,0.9-2.3c0.5-0.4,1.1-0.6,1.8-0.6c0.8,0,1.4,0.3,1.9,0.8c0.5,0.5,0.7,1.2,0.7,2.1c0,0.7-0.1,1.3-0.3,1.7
				s-0.5,0.7-1,1c-0.4,0.2-0.9,0.3-1.4,0.3c-0.8,0-1.5-0.3-1.9-0.8C41.6,28.3,41.4,27.5,41.4,26.6z M42.4,26.6
				c0,0.7,0.2,1.3,0.5,1.6c0.3,0.4,0.7,0.5,1.2,0.5c0.5,0,0.9-0.2,1.2-0.5s0.5-0.9,0.5-1.7c0-0.7-0.2-1.2-0.5-1.6
				c-0.3-0.4-0.7-0.5-1.2-0.5c-0.5,0-0.9,0.2-1.2,0.5C42.5,25.3,42.4,25.8,42.4,26.6z M47.7,29.4v-5.7h0.9v0.9
				c0.2-0.4,0.4-0.7,0.6-0.8c0.2-0.1,0.4-0.2,0.6-0.2c0.3,0,0.7,0.1,1,0.3l-0.3,0.9c-0.2-0.1-0.5-0.2-0.7-0.2
				c-0.2,0-0.4,0.1-0.6,0.2c-0.2,0.1-0.3,0.3-0.4,0.5c-0.1,0.3-0.2,0.7-0.2,1.1v3H47.7z M51.7,29.4v-7.9h1V26l2.3-2.3h1.3l-2.2,2.1
				l2.4,3.6h-1.2l-1.9-2.9l-0.7,0.7v2.3H51.7z M63.5,28.7c-0.4,0.3-0.7,0.5-1,0.6c-0.3,0.1-0.7,0.2-1.1,0.2c-0.6,0-1.1-0.2-1.4-0.5
				s-0.5-0.7-0.5-1.2c0-0.3,0.1-0.5,0.2-0.8c0.1-0.2,0.3-0.4,0.5-0.6c0.2-0.1,0.4-0.2,0.7-0.3c0.2-0.1,0.5-0.1,0.9-0.1
				c0.8-0.1,1.4-0.2,1.7-0.3c0-0.1,0-0.2,0-0.3c0-0.4-0.1-0.7-0.3-0.8c-0.2-0.2-0.6-0.3-1.1-0.3c-0.5,0-0.8,0.1-1,0.2
				c-0.2,0.2-0.4,0.4-0.5,0.8l-1-0.1c0.1-0.4,0.2-0.7,0.4-1c0.2-0.3,0.5-0.4,0.9-0.6c0.4-0.1,0.8-0.2,1.3-0.2c0.5,0,0.9,0.1,1.2,0.2
				c0.3,0.1,0.5,0.3,0.7,0.4c0.1,0.2,0.2,0.4,0.3,0.6c0,0.2,0,0.5,0,0.9V27c0,0.9,0,1.5,0.1,1.7c0,0.2,0.1,0.5,0.3,0.7h-1
				C63.5,29.2,63.5,29,63.5,28.7z M63.4,26.6c-0.3,0.1-0.9,0.3-1.6,0.4c-0.4,0.1-0.7,0.1-0.8,0.2c-0.2,0.1-0.3,0.2-0.4,0.3
				c-0.1,0.1-0.1,0.3-0.1,0.5c0,0.3,0.1,0.5,0.3,0.6c0.2,0.2,0.5,0.3,0.9,0.3s0.7-0.1,1-0.3c0.3-0.2,0.5-0.4,0.6-0.7
				c0.1-0.2,0.1-0.5,0.1-1V26.6z M65.3,27.7l1-0.2c0.1,0.4,0.2,0.7,0.4,0.9c0.2,0.2,0.6,0.3,1,0.3c0.4,0,0.8-0.1,1-0.3
				c0.2-0.2,0.3-0.4,0.3-0.6c0-0.2-0.1-0.4-0.3-0.5c-0.1-0.1-0.5-0.2-1-0.3c-0.7-0.2-1.2-0.3-1.5-0.5c-0.3-0.1-0.5-0.3-0.6-0.5
				c-0.1-0.2-0.2-0.5-0.2-0.8c0-0.3,0.1-0.5,0.2-0.7c0.1-0.2,0.3-0.4,0.5-0.5c0.1-0.1,0.3-0.2,0.6-0.3c0.3-0.1,0.5-0.1,0.8-0.1
				c0.4,0,0.8,0.1,1.2,0.2s0.6,0.3,0.8,0.5c0.2,0.2,0.3,0.5,0.3,0.9l-0.9,0.1c-0.1-0.3-0.2-0.5-0.4-0.7c-0.2-0.2-0.5-0.2-0.9-0.2
				c-0.4,0-0.8,0.1-1,0.2c-0.2,0.1-0.3,0.3-0.3,0.5c0,0.1,0,0.2,0.1,0.3c0.1,0.1,0.2,0.2,0.4,0.3c0.1,0,0.4,0.1,0.9,0.3
				c0.7,0.2,1.2,0.3,1.4,0.4c0.3,0.1,0.5,0.3,0.6,0.5c0.2,0.2,0.2,0.5,0.2,0.8c0,0.3-0.1,0.6-0.3,0.9c-0.2,0.3-0.5,0.5-0.8,0.7
				c-0.4,0.2-0.8,0.2-1.2,0.2c-0.7,0-1.3-0.2-1.7-0.5C65.7,28.8,65.4,28.3,65.3,27.7z"/>
		</g>
		<g>
			<defs>
				<rect id="SVGID_71_" width="90" height="66"/>
			</defs>
			<clipPath id="SVGID_72_">
				<use xlink:href="#SVGID_71_"  overflow="visible"/>
			</clipPath>
			<path clip-path="url(#SVGID_72_)" d="M3.8,39.3l-0.3-1.5v-1.3h1.1v1.3l-0.3,1.5H3.8z M5.5,39.3l-0.3-1.5v-1.3h1.1v1.3l-0.3,1.5
				H5.5z M13.5,41.7l1,0.3c-0.2,0.9-0.6,1.5-1.2,2c-0.6,0.5-1.3,0.7-2.1,0.7c-0.9,0-1.5-0.2-2.1-0.5c-0.5-0.3-0.9-0.9-1.2-1.5
				c-0.3-0.7-0.4-1.4-0.4-2.1c0-0.8,0.2-1.5,0.5-2.1c0.3-0.6,0.8-1.1,1.3-1.4c0.6-0.3,1.2-0.5,1.9-0.5c0.8,0,1.5,0.2,2,0.6
				c0.5,0.4,0.9,1,1.1,1.7l-1,0.3c-0.2-0.6-0.4-1-0.8-1.3c-0.3-0.3-0.8-0.4-1.3-0.4c-0.6,0-1.1,0.1-1.5,0.4C9.3,38,9,38.4,8.9,38.9
				c-0.2,0.5-0.2,1-0.2,1.5c0,0.7,0.1,1.3,0.3,1.8c0.2,0.5,0.5,0.9,0.9,1.1s0.9,0.4,1.3,0.4c0.6,0,1.1-0.2,1.5-0.5
				C13,42.8,13.3,42.3,13.5,41.7z M14.4,41.6c0-1.1,0.3-1.8,0.9-2.3c0.5-0.4,1.1-0.6,1.8-0.6c0.8,0,1.4,0.3,1.9,0.8
				c0.5,0.5,0.7,1.2,0.7,2.1c0,0.7-0.1,1.3-0.3,1.7s-0.5,0.7-1,1c-0.4,0.2-0.9,0.3-1.4,0.3c-0.8,0-1.5-0.3-1.9-0.8
				C14.6,43.3,14.4,42.5,14.4,41.6z M15.4,41.6c0,0.7,0.2,1.3,0.5,1.6c0.3,0.4,0.7,0.5,1.2,0.5c0.5,0,0.9-0.2,1.2-0.5
				c0.3-0.4,0.5-0.9,0.5-1.7c0-0.7-0.2-1.2-0.5-1.6c-0.3-0.4-0.7-0.5-1.2-0.5c-0.5,0-0.9,0.2-1.2,0.5C15.5,40.3,15.4,40.8,15.4,41.6
				z M20.7,44.4v-5.7h0.9v0.8c0.4-0.6,1-0.9,1.8-0.9c0.3,0,0.7,0.1,1,0.2c0.3,0.1,0.5,0.3,0.6,0.5c0.1,0.2,0.2,0.4,0.3,0.7
				c0,0.2,0,0.5,0,1v3.5h-1V41c0-0.4,0-0.7-0.1-0.9c-0.1-0.2-0.2-0.3-0.4-0.5c-0.2-0.1-0.4-0.2-0.7-0.2c-0.4,0-0.8,0.1-1.1,0.4
				c-0.3,0.3-0.5,0.8-0.5,1.5v3.1H20.7z M28.8,43.6l0.1,0.8c-0.3,0.1-0.5,0.1-0.7,0.1c-0.4,0-0.6-0.1-0.8-0.2
				c-0.2-0.1-0.3-0.3-0.4-0.4c-0.1-0.2-0.1-0.6-0.1-1.1v-3.3h-0.7v-0.8h0.7v-1.4l1-0.6v2h1v0.8h-1v3.3c0,0.3,0,0.4,0.1,0.5
				s0.1,0.1,0.2,0.2c0.1,0,0.2,0.1,0.3,0.1C28.5,43.6,28.7,43.6,28.8,43.6z M29.7,44.4v-5.7h0.9v0.9c0.2-0.4,0.4-0.7,0.6-0.8
				c0.2-0.1,0.4-0.2,0.6-0.2c0.3,0,0.7,0.1,1,0.3l-0.3,0.9c-0.2-0.1-0.5-0.2-0.7-0.2c-0.2,0-0.4,0.1-0.6,0.2
				c-0.2,0.1-0.3,0.3-0.4,0.5c-0.1,0.3-0.2,0.7-0.2,1.1v3H29.7z M33.4,41.6c0-1.1,0.3-1.8,0.9-2.3c0.5-0.4,1.1-0.6,1.8-0.6
				c0.8,0,1.4,0.3,1.9,0.8c0.5,0.5,0.7,1.2,0.7,2.1c0,0.7-0.1,1.3-0.3,1.7s-0.5,0.7-1,1c-0.4,0.2-0.9,0.3-1.4,0.3
				c-0.8,0-1.5-0.3-1.9-0.8C33.6,43.3,33.4,42.5,33.4,41.6z M34.4,41.6c0,0.7,0.2,1.3,0.5,1.6c0.3,0.4,0.7,0.5,1.2,0.5
				c0.5,0,0.9-0.2,1.2-0.5c0.3-0.4,0.5-0.9,0.5-1.7c0-0.7-0.2-1.2-0.5-1.6c-0.3-0.4-0.7-0.5-1.2-0.5c-0.5,0-0.9,0.2-1.2,0.5
				C34.5,40.3,34.4,40.8,34.4,41.6z M39.7,44.4v-7.9h1v7.9H39.7z M41.7,44.4v-7.9h1v7.9H41.7z M47.6,42.6l1,0.1
				c-0.2,0.6-0.4,1-0.9,1.4c-0.4,0.3-1,0.5-1.6,0.5c-0.8,0-1.5-0.3-2-0.8c-0.5-0.5-0.7-1.2-0.7-2.2c0-1,0.2-1.7,0.7-2.2
				c0.5-0.5,1.1-0.8,1.9-0.8c0.8,0,1.4,0.3,1.9,0.8c0.5,0.5,0.7,1.2,0.7,2.2c0,0.1,0,0.1,0,0.3h-4.3c0,0.6,0.2,1.1,0.5,1.4
				c0.3,0.3,0.7,0.5,1.2,0.5c0.4,0,0.7-0.1,0.9-0.3C47.3,43.3,47.5,43,47.6,42.6z M44.5,41h3.2c0-0.5-0.2-0.8-0.4-1.1
				c-0.3-0.4-0.7-0.5-1.2-0.5c-0.4,0-0.8,0.1-1.1,0.4C44.7,40.1,44.5,40.5,44.5,41z M49.7,44.4v-5.7h0.9v0.9
				c0.2-0.4,0.4-0.7,0.6-0.8c0.2-0.1,0.4-0.2,0.6-0.2c0.3,0,0.7,0.1,1,0.3l-0.3,0.9c-0.2-0.1-0.5-0.2-0.7-0.2
				c-0.2,0-0.4,0.1-0.6,0.2c-0.2,0.1-0.3,0.3-0.4,0.5c-0.1,0.3-0.2,0.7-0.2,1.1v3H49.7z M53.8,39.3l-0.3-1.5v-1.3h1.1v1.3l-0.3,1.5
				H53.8z M55.5,39.3l-0.3-1.5v-1.3h1.1v1.3l-0.3,1.5H55.5z"/>
		</g>
	</g>
	<g transform="translate(512,25)" text-rendering="geometricPrecision">
		<g>
			<defs>
				<rect id="SVGID_73_" x="-44" y="-15" width="132" height="45"/>
			</defs>
			<clipPath id="SVGID_74_">
				<use xlink:href="#SVGID_73_"  overflow="visible"/>
			</clipPath>
			<g clip-path="url(#SVGID_74_)" enable-background="new    ">
				<text transform="matrix(1 0 0 1 10 12)" font-family="'PT Sans'" font-size="11">View</text>
			</g>
		</g>
	</g>
	<g transform="translate(432,25)" text-rendering="geometricPrecision">
		<g>
			<defs>
				<rect id="SVGID_75_" x="-50" y="-15" width="150" height="45"/>
			</defs>
			<clipPath id="SVGID_76_">
				<use xlink:href="#SVGID_75_"  overflow="visible"/>
			</clipPath>
			<g clip-path="url(#SVGID_76_)" enable-background="new    ">
				<text transform="matrix(1 0 0 1 10 12)" font-family="'PT Sans'" font-size="11">Model</text>
			</g>
		</g>
	</g>
	<g transform="translate(251,150)" text-rendering="geometricPrecision">
		<g>
			<defs>
				<rect id="SVGID_77_" x="-71" y="-15" width="213" height="45"/>
			</defs>
			<clipPath id="SVGID_78_">
				<use xlink:href="#SVGID_77_"  overflow="visible"/>
			</clipPath>
			<g clip-path="url(#SVGID_78_)" enable-background="new    ">
				<text transform="matrix(1 0 0 1 10 12)" font-family="'PT Sans'" font-size="11">Command</text>
			</g>
		</g>
	</g>
	<g transform="translate(126,25)" text-rendering="geometricPrecision">
		<g>
			<defs>
				<rect id="SVGID_79_" x="-59" y="-15" width="177" height="45"/>
			</defs>
			<clipPath id="SVGID_80_">
				<use xlink:href="#SVGID_79_"  overflow="visible"/>
			</clipPath>
			<g clip-path="url(#SVGID_80_)" enable-background="new    ">
				<text transform="matrix(1 0 0 1 10 12)" font-family="'PT Sans'" font-size="11">Handler</text>
			</g>
		</g>
	</g>
	<g transform="translate(2,25)" text-rendering="geometricPrecision">
		<g>
			<defs>
				<rect id="SVGID_81_" x="-76" y="-15" width="228" height="45"/>
			</defs>
			<clipPath id="SVGID_82_">
				<use xlink:href="#SVGID_81_"  overflow="visible"/>
			</clipPath>
			<g clip-path="url(#SVGID_82_)" enable-background="new    ">
				<text transform="matrix(1 0 0 1 9 12)" font-family="'PT Sans'" font-size="11">User Agent</text>
			</g>
		</g>
	</g>
	<g transform="translate(-6,42)" text-rendering="geometricPrecision">
		<g>
			<defs>
				<rect id="SVGID_83_" width="211" height="104"/>
			</defs>
			<clipPath id="SVGID_84_">
				<use xlink:href="#SVGID_83_"  overflow="visible"/>
			</clipPath>

				<line clip-path="url(#SVGID_84_)" fill="none" stroke="#000000" stroke-linejoin="round" stroke-miterlimit="10" x1="50" y1="50" x2="157" y2="50"/>
		</g>
		<g>
			<defs>
				<rect id="SVGID_85_" width="211" height="104"/>
			</defs>
			<clipPath id="SVGID_86_">
				<use xlink:href="#SVGID_85_"  overflow="visible"/>
			</clipPath>
			<polygon clip-path="url(#SVGID_86_)" points="157,50 145,44 145,56 			"/>
		</g>
		<g>
			<defs>
				<rect id="SVGID_87_" width="211" height="104"/>
			</defs>
			<clipPath id="SVGID_88_">
				<use xlink:href="#SVGID_87_"  overflow="visible"/>
			</clipPath>
			<polygon clip-path="url(#SVGID_88_)" fill="none" stroke="#000000" stroke-linejoin="round" stroke-miterlimit="10" points="
				157,50 145,44 145,56 			"/>
		</g>
	</g>
	<g transform="translate(109,117)" text-rendering="geometricPrecision">
		<g>
			<defs>
				<rect id="SVGID_89_" width="196" height="104"/>
			</defs>
			<clipPath id="SVGID_90_">
				<use xlink:href="#SVGID_89_"  overflow="visible"/>
			</clipPath>

				<line clip-path="url(#SVGID_90_)" fill="none" stroke="#000000" stroke-linejoin="round" stroke-miterlimit="10" stroke-dasharray="5" stroke-dashoffset="1" x1="50" y1="50" x2="142" y2="50"/>
		</g>
		<g>
			<defs>
				<rect id="SVGID_91_" width="196" height="104"/>
			</defs>
			<clipPath id="SVGID_92_">
				<use xlink:href="#SVGID_91_"  overflow="visible"/>
			</clipPath>

				<line clip-path="url(#SVGID_92_)" fill="none" stroke="#000000" stroke-linejoin="round" stroke-miterlimit="10" x1="142" y1="50" x2="130" y2="44"/>
		</g>
		<g>
			<defs>
				<rect id="SVGID_93_" width="196" height="104"/>
			</defs>
			<clipPath id="SVGID_94_">
				<use xlink:href="#SVGID_93_"  overflow="visible"/>
			</clipPath>

				<line clip-path="url(#SVGID_94_)" fill="none" stroke="#000000" stroke-linejoin="round" stroke-miterlimit="10" x1="142" y1="50" x2="130" y2="56"/>
		</g>
	</g>
	<g transform="translate(109,200)" text-rendering="geometricPrecision">
		<g>
			<defs>
				<rect id="SVGID_95_" width="227" height="104"/>
			</defs>
			<clipPath id="SVGID_96_">
				<use xlink:href="#SVGID_95_"  overflow="visible"/>
			</clipPath>

				<line clip-path="url(#SVGID_96_)" fill="none" stroke="#000000" stroke-linejoin="round" stroke-miterlimit="10" x1="50" y1="50" x2="173" y2="50"/>
		</g>
		<g>
			<defs>
				<rect id="SVGID_97_" width="227" height="104"/>
			</defs>
			<clipPath id="SVGID_98_">
				<use xlink:href="#SVGID_97_"  overflow="visible"/>
			</clipPath>
			<polygon clip-path="url(#SVGID_98_)" points="173,50 161,44 161,56 			"/>
		</g>
		<g>
			<defs>
				<rect id="SVGID_99_" width="227" height="104"/>
			</defs>
			<clipPath id="SVGID_100_">
				<use xlink:href="#SVGID_99_"  overflow="visible"/>
			</clipPath>
			<polygon clip-path="url(#SVGID_100_)" fill="none" stroke="#000000" stroke-linejoin="round" stroke-miterlimit="10" points="
				173,50 161,44 161,56 			"/>
		</g>
	</g>
	<g transform="translate(240,214)" text-rendering="geometricPrecision">
		<g>
			<defs>
				<rect id="SVGID_101_" width="267" height="104"/>
			</defs>
			<clipPath id="SVGID_102_">
				<use xlink:href="#SVGID_101_"  overflow="visible"/>
			</clipPath>

				<line clip-path="url(#SVGID_102_)" fill="none" stroke="#000000" stroke-linejoin="round" stroke-miterlimit="10" x1="50" y1="50" x2="213" y2="50"/>
		</g>
		<g>
			<defs>
				<rect id="SVGID_103_" width="267" height="104"/>
			</defs>
			<clipPath id="SVGID_104_">
				<use xlink:href="#SVGID_103_"  overflow="visible"/>
			</clipPath>
			<polygon clip-path="url(#SVGID_104_)" points="213,50 201,44 201,56 			"/>
		</g>
		<g>
			<defs>
				<rect id="SVGID_105_" width="267" height="104"/>
			</defs>
			<clipPath id="SVGID_106_">
				<use xlink:href="#SVGID_105_"  overflow="visible"/>
			</clipPath>
			<polygon clip-path="url(#SVGID_106_)" fill="none" stroke="#000000" stroke-linejoin="round" stroke-miterlimit="10" points="
				213,50 201,44 201,56 			"/>
		</g>
	</g>
	<g transform="translate(240,292)" text-rendering="geometricPrecision">
		<g>
			<defs>
				<rect id="SVGID_107_" width="344" height="104"/>
			</defs>
			<clipPath id="SVGID_108_">
				<use xlink:href="#SVGID_107_"  overflow="visible"/>
			</clipPath>

				<line clip-path="url(#SVGID_108_)" fill="none" stroke="#000000" stroke-linejoin="round" stroke-miterlimit="10" x1="50" y1="50" x2="290" y2="50"/>
		</g>
		<g>
			<defs>
				<rect id="SVGID_109_" width="344" height="104"/>
			</defs>
			<clipPath id="SVGID_110_">
				<use xlink:href="#SVGID_109_"  overflow="visible"/>
			</clipPath>
			<polygon clip-path="url(#SVGID_110_)" points="290,50 278,44 278,56 			"/>
		</g>
		<g>
			<defs>
				<rect id="SVGID_111_" width="344" height="104"/>
			</defs>
			<clipPath id="SVGID_112_">
				<use xlink:href="#SVGID_111_"  overflow="visible"/>
			</clipPath>
			<polygon clip-path="url(#SVGID_112_)" fill="none" stroke="#000000" stroke-linejoin="round" stroke-miterlimit="10" points="
				290,50 278,44 278,56 			"/>
		</g>
	</g>
	<g transform="translate(-6,325)" text-rendering="geometricPrecision">
		<g>
			<defs>
				<rect id="SVGID_113_" width="211" height="104"/>
			</defs>
			<clipPath id="SVGID_114_">
				<use xlink:href="#SVGID_113_"  overflow="visible"/>
			</clipPath>

				<line clip-path="url(#SVGID_114_)" fill="none" stroke="#000000" stroke-linejoin="round" stroke-miterlimit="1" stroke-dasharray="8,3" x1="157" y1="50" x2="50" y2="50"/>
		</g>
		<g>
			<defs>
				<rect id="SVGID_115_" width="211" height="104"/>
			</defs>
			<clipPath id="SVGID_116_">
				<use xlink:href="#SVGID_115_"  overflow="visible"/>
			</clipPath>

				<line clip-path="url(#SVGID_116_)" fill="none" stroke="#000000" stroke-linejoin="round" stroke-miterlimit="10" x1="50" y1="50" x2="62" y2="56"/>
		</g>
		<g>
			<defs>
				<rect id="SVGID_117_" width="211" height="104"/>
			</defs>
			<clipPath id="SVGID_118_">
				<use xlink:href="#SVGID_117_"  overflow="visible"/>
			</clipPath>

				<line clip-path="url(#SVGID_118_)" fill="none" stroke="#000000" stroke-linejoin="round" stroke-miterlimit="10" x1="50" y1="50" x2="62" y2="44"/>
		</g>
	</g>
	<g transform="translate(109,69)" text-rendering="geometricPrecision">
		<g>
			<defs>
				<rect id="SVGID_119_" width="134" height="124"/>
			</defs>
			<clipPath id="SVGID_120_">
				<use xlink:href="#SVGID_119_"  overflow="visible"/>
			</clipPath>

				<line clip-path="url(#SVGID_120_)" fill="none" stroke="#000000" stroke-linejoin="round" stroke-miterlimit="10" x1="50" y1="50" x2="80" y2="50"/>
		</g>
		<g>
			<defs>
				<rect id="SVGID_121_" width="134" height="124"/>
			</defs>
			<clipPath id="SVGID_122_">
				<use xlink:href="#SVGID_121_"  overflow="visible"/>
			</clipPath>

				<line clip-path="url(#SVGID_122_)" fill="none" stroke="#000000" stroke-linejoin="round" stroke-miterlimit="10" x1="80" y1="50" x2="80" y2="70"/>
		</g>
		<g>
			<defs>
				<rect id="SVGID_123_" width="134" height="124"/>
			</defs>
			<clipPath id="SVGID_124_">
				<use xlink:href="#SVGID_123_"  overflow="visible"/>
			</clipPath>

				<line clip-path="url(#SVGID_124_)" fill="none" stroke="#000000" stroke-linejoin="round" stroke-miterlimit="10" x1="80" y1="70" x2="50" y2="70"/>
		</g>
		<g>
			<defs>
				<rect id="SVGID_125_" width="134" height="124"/>
			</defs>
			<clipPath id="SVGID_126_">
				<use xlink:href="#SVGID_125_"  overflow="visible"/>
			</clipPath>
			<polygon clip-path="url(#SVGID_126_)" points="50,70 62,76 62,64 			"/>
		</g>
		<g>
			<defs>
				<rect id="SVGID_127_" width="134" height="124"/>
			</defs>
			<clipPath id="SVGID_128_">
				<use xlink:href="#SVGID_127_"  overflow="visible"/>
			</clipPath>
			<polygon clip-path="url(#SVGID_128_)" fill="none" stroke="#000000" stroke-linejoin="round" stroke-miterlimit="10" points="
				50,70 62,76 62,64 			"/>
		</g>
	</g>
	<g transform="translate(143,397)" text-rendering="geometricPrecision">
		<g>
			<defs>
				<rect id="SVGID_129_" width="104" height="144"/>
			</defs>
			<clipPath id="SVGID_130_">
				<use xlink:href="#SVGID_129_"  overflow="visible"/>
			</clipPath>

				<line clip-path="url(#SVGID_130_)" fill="none" stroke="#000000" stroke-linejoin="round" stroke-miterlimit="10" stroke-dasharray="4" x1="50" y1="90" x2="50" y2="50"/>
		</g>
	</g>
	<g transform="translate(240,235)" text-rendering="geometricPrecision">
		<g>
			<defs>
				<rect id="SVGID_131_" width="149" height="124"/>
			</defs>
			<clipPath id="SVGID_132_">
				<use xlink:href="#SVGID_131_"  overflow="visible"/>
			</clipPath>

				<line clip-path="url(#SVGID_132_)" fill="none" stroke="#000000" stroke-linejoin="round" stroke-miterlimit="10" x1="50" y1="50" x2="95" y2="50"/>
		</g>
		<g>
			<defs>
				<rect id="SVGID_133_" width="149" height="124"/>
			</defs>
			<clipPath id="SVGID_134_">
				<use xlink:href="#SVGID_133_"  overflow="visible"/>
			</clipPath>

				<line clip-path="url(#SVGID_134_)" fill="none" stroke="#000000" stroke-linejoin="round" stroke-miterlimit="10" x1="95" y1="50" x2="95" y2="70"/>
		</g>
		<g>
			<defs>
				<rect id="SVGID_135_" width="149" height="124"/>
			</defs>
			<clipPath id="SVGID_136_">
				<use xlink:href="#SVGID_135_"  overflow="visible"/>
			</clipPath>

				<line clip-path="url(#SVGID_136_)" fill="none" stroke="#000000" stroke-linejoin="round" stroke-miterlimit="10" x1="95" y1="70" x2="50" y2="70"/>
		</g>
		<g>
			<defs>
				<rect id="SVGID_137_" width="149" height="124"/>
			</defs>
			<clipPath id="SVGID_138_">
				<use xlink:href="#SVGID_137_"  overflow="visible"/>
			</clipPath>
			<polygon clip-path="url(#SVGID_138_)" points="50,70 62,76 62,64 			"/>
		</g>
		<g>
			<defs>
				<rect id="SVGID_139_" width="149" height="124"/>
			</defs>
			<clipPath id="SVGID_140_">
				<use xlink:href="#SVGID_139_"  overflow="visible"/>
			</clipPath>
			<polygon clip-path="url(#SVGID_140_)" fill="none" stroke="#000000" stroke-linejoin="round" stroke-miterlimit="10" points="
				50,70 62,76 62,64 			"/>
		</g>
	</g>
	<g transform="translate(271,48)" text-rendering="geometricPrecision">
		<g>
			<defs>
				<rect id="SVGID_141_" width="104" height="156"/>
			</defs>
			<clipPath id="SVGID_142_">
				<use xlink:href="#SVGID_141_"  overflow="visible"/>
			</clipPath>

				<line clip-path="url(#SVGID_142_)" fill="none" stroke="#000000" stroke-linejoin="round" stroke-miterlimit="10" stroke-dasharray="4" x1="50" y1="50" x2="50" y2="102"/>
		</g>
	</g>
	<g transform="translate(349,289)" text-rendering="geometricPrecision">
		<g>
			<defs>
				<rect id="SVGID_143_" x="-112" y="-15" width="336" height="45"/>
			</defs>
			<clipPath id="SVGID_144_">
				<use xlink:href="#SVGID_143_"  overflow="visible"/>
			</clipPath>
			<g clip-path="url(#SVGID_144_)" enable-background="new    ">
				<text transform="matrix(1 0 0 1 10 12)" font-family="'PT Sans'" font-size="11">1.3.2: Lookup view</text>
			</g>
		</g>
	</g>
	<g transform="translate(206,118)" text-rendering="geometricPrecision">
		<g>
			<defs>
				<rect id="SVGID_145_" x="-106" y="-15" width="318" height="45"/>
			</defs>
			<clipPath id="SVGID_146_">
				<use xlink:href="#SVGID_145_"  overflow="visible"/>
			</clipPath>
			<g clip-path="url(#SVGID_146_)" enable-background="new    ">
				<text transform="matrix(1 0 0 1 10 12)" font-family="'PT Sans'" font-size="11">1.1: Lookup route</text>
			</g>
		</g>
	</g>
	<g transform="translate(36,355)" text-rendering="geometricPrecision">
		<g>
			<defs>
				<rect id="SVGID_147_" x="-123" y="-15" width="369" height="45"/>
			</defs>
			<clipPath id="SVGID_148_">
				<use xlink:href="#SVGID_147_"  overflow="visible"/>
			</clipPath>
			<g clip-path="url(#SVGID_148_)" enable-background="new    ">
				<text transform="matrix(1 0 0 1 10 12)" font-family="'PT Sans'" font-size="11">1.4: HTTP Response</text>
			</g>
		</g>
	</g>
	<g transform="translate(349,323)" text-rendering="geometricPrecision">
		<g>
			<defs>
				<rect id="SVGID_149_" x="-146" y="-15" width="438" height="45"/>
			</defs>
			<clipPath id="SVGID_150_">
				<use xlink:href="#SVGID_149_"  overflow="visible"/>
			</clipPath>
			<g clip-path="url(#SVGID_150_)" enable-background="new    ">
				<text transform="matrix(1 0 0 1 10 12)" font-family="'PT Sans'" font-size="11">1.3.3: Render(viewModel)</text>
			</g>
		</g>
	</g>
	<g transform="translate(348,243)" text-rendering="geometricPrecision">
		<g>
			<defs>
				<rect id="SVGID_151_" x="-154" y="-15" width="462" height="45"/>
			</defs>
			<clipPath id="SVGID_152_">
				<use xlink:href="#SVGID_151_"  overflow="visible"/>
			</clipPath>
			<g clip-path="url(#SVGID_152_)" enable-background="new    ">
				<text transform="matrix(1 0 0 1 9 12)" font-family="'PT Sans'" font-size="11">1.3.1: Invoke Domain Logic</text>
			</g>
		</g>
	</g>
	<g transform="translate(166,230)" text-rendering="geometricPrecision">
		<g>
			<defs>
				<rect id="SVGID_153_" x="-108" y="-15" width="324" height="45"/>
			</defs>
			<clipPath id="SVGID_154_">
				<use xlink:href="#SVGID_153_"  overflow="visible"/>
			</clipPath>
			<g clip-path="url(#SVGID_154_)" enable-background="new    ">
				<text transform="matrix(1 0 0 1 9 12)" font-family="'PT Sans'" font-size="11">1.3: Invoke Action</text>
			</g>
		</g>
	</g>
	<g transform="translate(168,147)" text-rendering="geometricPrecision">
		<g>
			<defs>
				<rect id="SVGID_155_" x="-75" y="-15" width="225" height="45"/>
			</defs>
			<clipPath id="SVGID_156_">
				<use xlink:href="#SVGID_155_"  overflow="visible"/>
			</clipPath>
			<g clip-path="url(#SVGID_156_)" enable-background="new    ">
				<text transform="matrix(1 0 0 1 9 12)" font-family="'PT Sans'" font-size="11">1.2: Create</text>
			</g>
		</g>
	</g>
	<g transform="translate(45,72)" text-rendering="geometricPrecision">
		<g>
			<defs>
				<rect id="SVGID_157_" x="-105" y="-15" width="315" height="45"/>
			</defs>
			<clipPath id="SVGID_158_">
				<use xlink:href="#SVGID_157_"  overflow="visible"/>
			</clipPath>
			<g clip-path="url(#SVGID_158_)" enable-background="new    ">
				<text transform="matrix(1 0 0 1 10 12)" font-family="'PT Sans'" font-size="11">1: HTTP Request</text>
			</g>
		</g>
	</g>
</g>
</svg>
