<?xml version="1.0" encoding="UTF-8" standalone="no"?>
<!DOCTYPE svg PUBLIC "-//W3C//DTD SVG 1.0//EN" "http://www.w3.org/TR/2001/PR-SVG-20010719/DTD/svg10.dtd">
<svg width="11cm" height="8cm" viewBox="339 119 213 142" xmlns="http://www.w3.org/2000/svg" xmlns:xlink="http://www.w3.org/1999/xlink">
  <g>
    <rect style="fill: #ffffff" x="400" y="120" width="58.6" height="28"/>
    <rect style="fill: none; fill-opacity:0; stroke-width: 2; stroke: #000000" x="400" y="120" width="58.6" height="28"/>
    <text font-size="16" style="fill: #000000;text-anchor:middle;font-family:sans-serif;font-style:normal;font-weight:700" x="429.3" y="140">Model</text>
  </g>
  <g>
    <rect style="fill: #ffffff" x="340" y="200" width="49.6" height="28"/>
    <rect style="fill: none; fill-opacity:0; stroke-width: 2; stroke: #000000" x="340" y="200" width="49.6" height="28"/>
    <text font-size="16" style="fill: #000000;text-anchor:middle;font-family:sans-serif;font-style:normal;font-weight:700" x="364.8" y="220">View</text>
  </g>
  <g>
    <rect style="fill: #ffffff" x="460" y="200" width="90.5" height="28"/>
    <rect style="fill: none; fill-opacity:0; stroke-width: 2; stroke: #000000" x="460" y="200" width="90.5" height="28"/>
    <text font-size="16" style="fill: #000000;text-anchor:middle;font-family:sans-serif;font-style:normal;font-weight:700" x="505.25" y="220">Controller</text>
  </g>
  <g>
    <polyline style="fill: none; fill-opacity:0; stroke-width: 2; stroke-dasharray: 8; stroke: #000000" points="505.25,198.993 505.25,178 429.3,178 429.3,155.713 "/>
    <polyline style="fill: none; fill-opacity:0; stroke-width: 2; stroke: #000000" points="434.3,168.36 429.3,152.36 424.3,168.36 "/>
  </g>
  <g>
    <polyline style="fill: none; fill-opacity:0; stroke-width: 2; stroke-dasharray: 8; stroke: #000000" points="364.8,198.993 364.8,178 429.3,178 429.3,155.713 "/>
    <polyline style="fill: none; fill-opacity:0; stroke-width: 2; stroke: #000000" points="434.3,168.36 429.3,152.36 424.3,168.36 "/>
  </g>
  <g>
    <path style="fill: none; fill-opacity:0; stroke-width: 2; stroke-linejoin: round; stroke-dasharray: 4; stroke: #000000" d="M 501.25,260 A 4,4 0 0 0 505.25,256"/>
    <line style="fill: none; fill-opacity:0; stroke-width: 2; stroke-linejoin: round; stroke-dasharray: 4; stroke: #000000" x1="505.25" y1="232.472" x2="505.25" y2="256"/>
    <path style="fill: none; fill-opacity:0; stroke-width: 2; stroke-linejoin: round; stroke-dasharray: 4; stroke: #000000" d="M 364.8,256 A 4,4 0 0 0 368.8,260"/>
    <line style="fill: none; fill-opacity:0; stroke-width: 2; stroke-linejoin: round; stroke-dasharray: 4; stroke: #000000" x1="501.25" y1="260" x2="368.8" y2="260"/>
    <line style="fill: none; fill-opacity:0; stroke-width: 2; stroke-linejoin: round; stroke-dasharray: 4; stroke: #000000" x1="364.8" y1="256" x2="364.8" y2="232.472"/>
    <polyline style="fill: none; fill-opacity:0; stroke-width: 2; stroke: #000000" points="510.25,240.236 505.25,230.236 500.25,240.236 "/>
    <polyline style="fill: none; fill-opacity:0; stroke-width: 2; stroke: #000000" points="369.8,240.236 364.8,230.236 359.8,240.236 "/>
  </g>
</svg>
