<?xml version="1.0" encoding="utf-8"?>
<!-- Generator: Adobe Illustrator 18.0.0, SVG Export Plug-In . SVG Version: 6.00 Build 0)  -->
<!DOCTYPE svg PUBLIC "-//W3C//DTD SVG 1.1//EN" "http://www.w3.org/Graphics/SVG/1.1/DTD/svg11.dtd">
<svg version="1.1"
	 id="Layer_1" text-rendering="auto" color-rendering="auto" shape-rendering="auto" image-rendering="auto" color-interpolation="auto"
	 xmlns="http://www.w3.org/2000/svg" xmlns:xlink="http://www.w3.org/1999/xlink" x="0px" y="0px" viewBox="0 0 516 332"
	 enable-background="new 0 0 516 332" xml:space="preserve" width="15cm" height="11cm" preserveAspectRatio="xMidYMin meet">
  <style type="text/css">
    /* <![CDATA[ */
      text {
        fill: #000000;
        font-family:'PT Sans', sans-serif;
    		font-style:normal;
        font-weight:bold;
				font-size:11px;
       }
    /* ]]> */
  </style>
<g>
	<g text-rendering="geometricPrecision">
		<rect fill="#FFFFFF" width="516" height="332"/>
	</g>
	<g transform="translate(102.8529,3.1176)" text-rendering="geometricPrecision">
		<g>
			<defs>
				<rect id="SVGID_1_" x="0" y="0" width="406" height="264"/>
			</defs>
			<clipPath id="SVGID_2_">
				<use xlink:href="#SVGID_1_"  overflow="visible"/>
			</clipPath>
			<path clip-path="url(#SVGID_2_)" fill="#F9C7C9" d="M8,0C3.6,0,0,3.6,0,8v246c0,4.4,3.6,8,8,8h388c4.4,0,8-3.6,8-8V8
				c0-4.4-3.6-8-8-8H8z"/>
		</g>
	</g>
	<g transform="translate(102.8529,3.1176)" text-rendering="geometricPrecision">
		<g>
			<defs>
				<rect id="SVGID_3_" x="0" y="0" width="406" height="264"/>
			</defs>
			<clipPath id="SVGID_4_">
				<use xlink:href="#SVGID_3_"  overflow="visible"/>
			</clipPath>
			<path clip-path="url(#SVGID_4_)" fill="none" stroke="#CC93E1" stroke-width="1.5" stroke-miterlimit="10" d="M8,0
				C3.6,0,0,3.6,0,8v246c0,4.4,3.6,8,8,8h388c4.4,0,8-3.6,8-8V8c0-4.4-3.6-8-8-8H8z"/>
		</g>
	</g>
	<g transform="translate(2.3529,3.6176)" text-rendering="geometricPrecision">
		<g>
			<defs>
				<rect id="SVGID_5_" x="0" y="0" width="366" height="263"/>
			</defs>
			<clipPath id="SVGID_6_">
				<use xlink:href="#SVGID_5_"  overflow="visible"/>
			</clipPath>
			<path clip-path="url(#SVGID_6_)" fill="#A8C5DC" fill-opacity="0.5098" d="M8,0C3.6,0,0,3.6,0,8v247c0,4.4,3.6,8,8,8h349
				c4.4,0,8-3.6,8-8V8c0-4.4-3.6-8-8-8H8z"/>
		</g>
	</g>
	<g transform="translate(2.3529,3.6176)" text-rendering="geometricPrecision">
		<g>
			<defs>
				<rect id="SVGID_7_" x="0" y="0" width="366" height="263"/>
			</defs>
			<clipPath id="SVGID_8_">
				<use xlink:href="#SVGID_7_"  overflow="visible"/>
			</clipPath>
			<path clip-path="url(#SVGID_8_)" fill="none" stroke="#CC93E1" stroke-linejoin="bevel" stroke-miterlimit="1" d="M8,0
				C3.6,0,0,3.6,0,8v247c0,4.4,3.6,8,8,8h349c4.4,0,8-3.6,8-8V8c0-4.4-3.6-8-8-8H8z"/>
		</g>
	</g>
	<g transform="translate(159.3529,21.6176)" text-rendering="geometricPrecision">
		<g>
			<defs>
				<rect id="SVGID_9_" x="-7" y="-7" width="145" height="58"/>
			</defs>
			<clipPath id="SVGID_10_">
				<use xlink:href="#SVGID_9_"  overflow="visible"/>
			</clipPath>
			<rect x="0" y="0" clip-path="url(#SVGID_10_)" fill="#C0C0C0" width="127" height="40"/>
		</g>
	</g>
	<g transform="translate(159.3529,21.6176)" text-rendering="geometricPrecision">
		<g>
			<defs>
				<rect id="SVGID_11_" x="-7" y="-7" width="145" height="58"/>
			</defs>
			<clipPath id="SVGID_12_">
				<use xlink:href="#SVGID_11_"  overflow="visible"/>
			</clipPath>

				<rect x="0" y="0" clip-path="url(#SVGID_12_)" fill="none" stroke="#000000" stroke-linejoin="round" stroke-miterlimit="1" width="127" height="40"/>
		</g>
		<g>
			<defs>
				<rect id="SVGID_13_" x="-7" y="-7" width="145" height="58"/>
			</defs>
			<clipPath id="SVGID_14_">
				<use xlink:href="#SVGID_13_"  overflow="visible"/>
			</clipPath>

				<line clip-path="url(#SVGID_14_)" fill="none" stroke="#000000" stroke-linejoin="round" stroke-miterlimit="1" x1="0" y1="15" x2="127" y2="15"/>
		</g>
	</g>
	<g transform="translate(159.3529,21.6176)" text-rendering="geometricPrecision">
		<g>
			<defs>
				<rect id="SVGID_15_" x="0" y="0" width="127" height="15"/>
			</defs>
			<clipPath id="SVGID_16_">
				<use xlink:href="#SVGID_15_"  overflow="visible"/>
			</clipPath>
			<g clip-path="url(#SVGID_16_)" enable-background="new    ">
				<text transform="matrix(1 0 0 1 5 12)">Model-View-Controller</text>
			</g>
		</g>
	</g>
	<g transform="translate(113.3529,111.6176)" text-rendering="geometricPrecision">
		<g>
			<defs>
				<rect id="SVGID_17_" x="-7" y="-7" width="143" height="58"/>
			</defs>
			<clipPath id="SVGID_18_">
				<use xlink:href="#SVGID_17_"  overflow="visible"/>
			</clipPath>
			<rect x="0" y="0" clip-path="url(#SVGID_18_)" fill="#C0C0C0" width="125" height="40"/>
		</g>
	</g>
	<g transform="translate(113.3529,111.6176)" text-rendering="geometricPrecision">
		<g>
			<defs>
				<rect id="SVGID_19_" x="-7" y="-7" width="143" height="58"/>
			</defs>
			<clipPath id="SVGID_20_">
				<use xlink:href="#SVGID_19_"  overflow="visible"/>
			</clipPath>

				<rect x="0" y="0" clip-path="url(#SVGID_20_)" fill="none" stroke="#000000" stroke-linejoin="round" stroke-miterlimit="1" width="125" height="40"/>
		</g>
		<g>
			<defs>
				<rect id="SVGID_21_" x="-7" y="-7" width="143" height="58"/>
			</defs>
			<clipPath id="SVGID_22_">
				<use xlink:href="#SVGID_21_"  overflow="visible"/>
			</clipPath>

				<line clip-path="url(#SVGID_22_)" fill="none" stroke="#000000" stroke-linejoin="round" stroke-miterlimit="1" x1="0" y1="15" x2="125" y2="15"/>
		</g>
	</g>
	<g transform="translate(113.3529,111.6176)" text-rendering="geometricPrecision">
		<g>
			<defs>
				<rect id="SVGID_23_" x="0" y="0" width="125" height="15"/>
			</defs>
			<clipPath id="SVGID_24_">
				<use xlink:href="#SVGID_23_"  overflow="visible"/>
			</clipPath>
			<g clip-path="url(#SVGID_24_)" enable-background="new    ">
				<text transform="matrix(1 0 0 1 5 12)" >Model-View-Presenter</text>
			</g>
		</g>
	</g>
	<g transform="translate(113.3529,208.6176)" text-rendering="geometricPrecision">
		<g>
			<defs>
				<rect id="SVGID_25_" x="-7" y="-7" width="98" height="58"/>
			</defs>
			<clipPath id="SVGID_26_">
				<use xlink:href="#SVGID_25_"  overflow="visible"/>
			</clipPath>
			<rect x="0" y="0" clip-path="url(#SVGID_26_)" fill="#FFFFFF" width="80" height="40"/>
		</g>
	</g>
	<g transform="translate(113.3529,208.6176)" text-rendering="geometricPrecision">
		<g>
			<defs>
				<rect id="SVGID_27_" x="-7" y="-7" width="98" height="58"/>
			</defs>
			<clipPath id="SVGID_28_">
				<use xlink:href="#SVGID_27_"  overflow="visible"/>
			</clipPath>

				<rect x="0" y="0" clip-path="url(#SVGID_28_)" fill="none" stroke="#000000" stroke-linejoin="round" stroke-miterlimit="1" width="80" height="40"/>
		</g>
		<g>
			<defs>
				<rect id="SVGID_29_" x="-7" y="-7" width="98" height="58"/>
			</defs>
			<clipPath id="SVGID_30_">
				<use xlink:href="#SVGID_29_"  overflow="visible"/>
			</clipPath>

				<line clip-path="url(#SVGID_30_)" fill="none" stroke="#000000" stroke-linejoin="round" stroke-miterlimit="1" x1="0" y1="15" x2="80" y2="15"/>
		</g>
	</g>
	<g transform="translate(113.3529,208.6176)" text-rendering="geometricPrecision">
		<g>
			<defs>
				<rect id="SVGID_31_" x="0" y="0" width="80" height="15"/>
			</defs>
			<clipPath id="SVGID_32_">
				<use xlink:href="#SVGID_31_"  overflow="visible"/>
			</clipPath>
			<g clip-path="url(#SVGID_32_)" enable-background="new    ">
				<text transform="matrix(1 0 0 1 4 12)">Passive View</text>
			</g>
		</g>
	</g>
	<g transform="translate(202.3529,208.6176)" text-rendering="geometricPrecision">
		<g>
			<defs>
				<rect id="SVGID_33_" x="-7" y="-7" width="145" height="58"/>
			</defs>
			<clipPath id="SVGID_34_">
				<use xlink:href="#SVGID_33_"  overflow="visible"/>
			</clipPath>
			<rect x="0" y="0" clip-path="url(#SVGID_34_)" fill="#FFFFFF" width="127" height="40"/>
		</g>
	</g>
	<g transform="translate(202.3529,208.6176)" text-rendering="geometricPrecision">
		<g>
			<defs>
				<rect id="SVGID_35_" x="-7" y="-7" width="145" height="58"/>
			</defs>
			<clipPath id="SVGID_36_">
				<use xlink:href="#SVGID_35_"  overflow="visible"/>
			</clipPath>

				<rect x="0" y="0" clip-path="url(#SVGID_36_)" fill="none" stroke="#000000" stroke-linejoin="round" stroke-miterlimit="1" width="127" height="40"/>
		</g>
		<g>
			<defs>
				<rect id="SVGID_37_" x="-7" y="-7" width="145" height="58"/>
			</defs>
			<clipPath id="SVGID_38_">
				<use xlink:href="#SVGID_37_"  overflow="visible"/>
			</clipPath>

				<line clip-path="url(#SVGID_38_)" fill="none" stroke="#000000" stroke-linejoin="round" stroke-miterlimit="1" x1="0" y1="15" x2="127" y2="15"/>
		</g>
	</g>
	<g transform="translate(202.3529,208.6176)" text-rendering="geometricPrecision">
		<g>
			<defs>
				<rect id="SVGID_39_" x="0" y="0" width="127" height="15"/>
			</defs>
			<clipPath id="SVGID_40_">
				<use xlink:href="#SVGID_39_"  overflow="visible"/>
			</clipPath>
			<g clip-path="url(#SVGID_40_)" enable-background="new    ">
				<text transform="matrix(1 0 0 1 5 12)">Supervising Presenter</text>
			</g>
		</g>
	</g>
	<g transform="translate(248.3529,111.6176)" text-rendering="geometricPrecision">
		<g>
			<defs>
				<rect id="SVGID_41_" x="-7" y="-7" width="130" height="58"/>
			</defs>
			<clipPath id="SVGID_42_">
				<use xlink:href="#SVGID_41_"  overflow="visible"/>
			</clipPath>
			<rect x="0" y="0" clip-path="url(#SVGID_42_)" fill="#FFFFFF" width="112" height="40"/>
		</g>
	</g>
	<g transform="translate(248.3529,111.6176)" text-rendering="geometricPrecision">
		<g>
			<defs>
				<rect id="SVGID_43_" x="-7" y="-7" width="130" height="58"/>
			</defs>
			<clipPath id="SVGID_44_">
				<use xlink:href="#SVGID_43_"  overflow="visible"/>
			</clipPath>

				<rect x="0" y="0" clip-path="url(#SVGID_44_)" fill="none" stroke="#000000" stroke-linejoin="round" stroke-miterlimit="1" width="112" height="40"/>
		</g>
		<g>
			<defs>
				<rect id="SVGID_45_" x="-7" y="-7" width="130" height="58"/>
			</defs>
			<clipPath id="SVGID_46_">
				<use xlink:href="#SVGID_45_"  overflow="visible"/>
			</clipPath>

				<line clip-path="url(#SVGID_46_)" fill="none" stroke="#000000" stroke-linejoin="round" stroke-miterlimit="1" x1="0" y1="15" x2="112" y2="15"/>
		</g>
	</g>
	<g transform="translate(248.3529,111.6176)" text-rendering="geometricPrecision">
		<g>
			<defs>
				<rect id="SVGID_47_" x="0" y="0" width="112" height="15"/>
			</defs>
			<clipPath id="SVGID_48_">
				<use xlink:href="#SVGID_47_"  overflow="visible"/>
			</clipPath>
			<g clip-path="url(#SVGID_48_)" enable-background="new    ">
				<text transform="matrix(1 0 0 1 4 12)">Presentation Model</text>
			</g>
		</g>
	</g>
	<g transform="translate(371.3529,208.6176)" text-rendering="geometricPrecision">
		<g>
			<defs>
				<rect id="SVGID_49_" x="-7" y="-7" width="150" height="58"/>
			</defs>
			<clipPath id="SVGID_50_">
				<use xlink:href="#SVGID_49_"  overflow="visible"/>
			</clipPath>
			<rect x="0" y="0" clip-path="url(#SVGID_50_)" fill="#FFFFFF" width="132" height="40"/>
		</g>
	</g>
	<g transform="translate(371.3529,208.6176)" text-rendering="geometricPrecision">
		<g>
			<defs>
				<rect id="SVGID_51_" x="-7" y="-7" width="150" height="58"/>
			</defs>
			<clipPath id="SVGID_52_">
				<use xlink:href="#SVGID_51_"  overflow="visible"/>
			</clipPath>

				<rect x="0" y="0" clip-path="url(#SVGID_52_)" fill="none" stroke="#000000" stroke-linejoin="round" stroke-miterlimit="1" width="132" height="40"/>
		</g>
		<g>
			<defs>
				<rect id="SVGID_53_" x="-7" y="-7" width="150" height="58"/>
			</defs>
			<clipPath id="SVGID_54_">
				<use xlink:href="#SVGID_53_"  overflow="visible"/>
			</clipPath>

				<line clip-path="url(#SVGID_54_)" fill="none" stroke="#000000" stroke-linejoin="round" stroke-miterlimit="1" x1="0" y1="15" x2="132" y2="15"/>
		</g>
	</g>
	<g transform="translate(371.3529,208.6176)" text-rendering="geometricPrecision">
		<g>
			<defs>
				<rect id="SVGID_55_" x="0" y="0" width="132" height="15"/>
			</defs>
			<clipPath id="SVGID_56_">
				<use xlink:href="#SVGID_55_"  overflow="visible"/>
			</clipPath>
			<g clip-path="url(#SVGID_56_)" enable-background="new    ">
				<text transform="matrix(1 0 0 1 4 12)">Model-View-ViewModel</text>
			</g>
		</g>
	</g>
	<g transform="translate(11.3529,115.6176)" text-rendering="geometricPrecision">
		<g>
			<defs>
				<rect id="SVGID_57_" x="-8" y="-8" width="100" height="60"/>
			</defs>
			<clipPath id="SVGID_58_">
				<use xlink:href="#SVGID_57_"  overflow="visible"/>
			</clipPath>
			<rect x="0" y="0" clip-path="url(#SVGID_58_)" fill="#FFFFFF" width="80" height="40"/>
		</g>
	</g>
	<g transform="translate(11.3529,115.6176)" text-rendering="geometricPrecision">
		<g>
			<defs>
				<rect id="SVGID_59_" x="-8" y="-8" width="100" height="60"/>
			</defs>
			<clipPath id="SVGID_60_">
				<use xlink:href="#SVGID_59_"  overflow="visible"/>
			</clipPath>

				<rect x="0" y="0" clip-path="url(#SVGID_60_)" fill="none" stroke="#000000" stroke-width="1.5" stroke-linejoin="round" stroke-miterlimit="10" width="80" height="40"/>
		</g>
		<g>
			<defs>
				<rect id="SVGID_61_" x="-8" y="-8" width="100" height="60"/>
			</defs>
			<clipPath id="SVGID_62_">
				<use xlink:href="#SVGID_61_"  overflow="visible"/>
			</clipPath>

				<line clip-path="url(#SVGID_62_)" fill="none" stroke="#000000" stroke-width="3" stroke-linejoin="round" stroke-miterlimit="10" x1="0" y1="15" x2="80" y2="15"/>
		</g>
	</g>
	<g transform="translate(11.3529,115.6176)" text-rendering="geometricPrecision">
		<g>
			<defs>
				<rect id="SVGID_63_" x="0" y="0" width="80" height="15"/>
			</defs>
			<clipPath id="SVGID_64_">
				<use xlink:href="#SVGID_63_"  overflow="visible"/>
			</clipPath>
			<g clip-path="url(#SVGID_64_)" enable-background="new    ">
				<text transform="matrix(1 0 0 1 19 12)">Model 2</text>
			</g>
		</g>
	</g>
	<g transform="translate(33.3529,287.6176)" text-rendering="geometricPrecision">
		<g>
			<defs>
				<rect id="SVGID_65_" x="-7" y="-7" width="98" height="58"/>
			</defs>
			<clipPath id="SVGID_66_">
				<use xlink:href="#SVGID_65_"  overflow="visible"/>
			</clipPath>
			<polygon clip-path="url(#SVGID_66_)" fill="#7ACFF5" points="0,0 64,0 79,15 64,15 64,0 79,15 79,39 0,39 			"/>
		</g>
	</g>
	<g transform="translate(33.3529,287.6176)" text-rendering="geometricPrecision">
		<g>
			<defs>
				<rect id="SVGID_67_" x="-7" y="-7" width="98" height="58"/>
			</defs>
			<clipPath id="SVGID_68_">
				<use xlink:href="#SVGID_67_"  overflow="visible"/>
			</clipPath>
			<polygon clip-path="url(#SVGID_68_)" fill="none" stroke="#000000" stroke-linejoin="round" stroke-miterlimit="1" points="0,0
				64,0 79,15 64,15 64,0 79,15 79,39 0,39 			"/>
		</g>
	</g>
	<g transform="translate(33.3529,287.6176)" text-rendering="geometricPrecision">
		<g>
			<defs>
				<rect id="SVGID_69_" x="0" y="0" width="65" height="40"/>
			</defs>
			<clipPath id="SVGID_70_">
				<use xlink:href="#SVGID_69_"  overflow="visible"/>
			</clipPath>
			<path clip-path="url(#SVGID_70_)" d="M5.2,14.4L3.1,6.5h1.1l1.2,5.2c0.1,0.5,0.2,1.1,0.3,1.6c0.2-0.8,0.3-1.3,0.4-1.5l1.5-5.3
				h1.2l1.1,4c0.3,1,0.5,1.9,0.6,2.8c0.1-0.5,0.2-1.1,0.4-1.7l1.3-5.1h1l-2.2,7.9h-1l-1.7-6C8.3,7.9,8.2,7.6,8.2,7.5
				C8.1,7.9,8,8.2,8,8.4l-1.7,6H5.2z M17.6,12.6l1,0.1c-0.2,0.6-0.4,1-0.9,1.4c-0.4,0.3-1,0.5-1.6,0.5c-0.8,0-1.5-0.3-2-0.8
				c-0.5-0.5-0.7-1.2-0.7-2.2c0-1,0.2-1.7,0.7-2.2c0.5-0.5,1.1-0.8,1.9-0.8c0.8,0,1.4,0.3,1.9,0.8c0.5,0.5,0.7,1.2,0.7,2.2
				c0,0.1,0,0.1,0,0.3h-4.3c0,0.6,0.2,1.1,0.5,1.4c0.3,0.3,0.7,0.5,1.2,0.5c0.4,0,0.7-0.1,0.9-0.3C17.3,13.3,17.5,13,17.6,12.6z
				 M14.5,11h3.2c0-0.5-0.2-0.8-0.4-1.1c-0.3-0.4-0.7-0.5-1.2-0.5c-0.4,0-0.8,0.1-1.1,0.4C14.7,10.1,14.5,10.5,14.5,11z M20.6,14.4
				h-0.9V6.5h1v2.8c0.4-0.5,0.9-0.8,1.6-0.8c0.4,0,0.7,0.1,1,0.2c0.3,0.1,0.6,0.3,0.8,0.6c0.2,0.3,0.4,0.6,0.5,0.9
				c0.1,0.4,0.2,0.7,0.2,1.2c0,1-0.2,1.7-0.7,2.3c-0.5,0.5-1.1,0.8-1.7,0.8c-0.7,0-1.2-0.3-1.6-0.8V14.4z M20.6,11.5
				c0,0.7,0.1,1.2,0.3,1.5c0.3,0.5,0.7,0.7,1.2,0.7c0.4,0,0.8-0.2,1.1-0.5c0.3-0.4,0.5-0.9,0.5-1.6c0-0.7-0.1-1.3-0.4-1.6
				c-0.3-0.4-0.7-0.5-1.1-0.5c-0.4,0-0.8,0.2-1.1,0.5C20.8,10.3,20.6,10.8,20.6,11.5z"/>
		</g>
	</g>
	<g transform="translate(360.3529,287.6176)" text-rendering="geometricPrecision">
		<g>
			<defs>
				<rect id="SVGID_71_" x="-7" y="-7" width="111" height="58"/>
			</defs>
			<clipPath id="SVGID_72_">
				<use xlink:href="#SVGID_71_"  overflow="visible"/>
			</clipPath>
			<polygon clip-path="url(#SVGID_72_)" fill="#7ACFF5" points="0,0 77,0 92,15 77,15 77,0 92,15 92,39 0,39 			"/>
		</g>
	</g>
	<g transform="translate(360.3529,287.6176)" text-rendering="geometricPrecision">
		<g>
			<defs>
				<rect id="SVGID_73_" x="-7" y="-7" width="111" height="58"/>
			</defs>
			<clipPath id="SVGID_74_">
				<use xlink:href="#SVGID_73_"  overflow="visible"/>
			</clipPath>
			<polygon clip-path="url(#SVGID_74_)" fill="none" stroke="#000000" stroke-linejoin="round" stroke-miterlimit="1" points="0,0
				77,0 92,15 77,15 77,0 92,15 92,39 0,39 			"/>
		</g>
	</g>
	<g transform="translate(360.3529,287.6176)" text-rendering="geometricPrecision">
		<g>
			<defs>
				<rect id="SVGID_75_" x="0" y="0" width="78" height="40"/>
			</defs>
			<clipPath id="SVGID_76_">
				<use xlink:href="#SVGID_75_"  overflow="visible"/>
			</clipPath>
			<path clip-path="url(#SVGID_76_)" d="M7.5,11.3v-0.9h3.3v2.9c-0.5,0.4-1.1,0.7-1.6,0.9c-0.5,0.2-1.1,0.3-1.7,0.3
				c-0.8,0-1.5-0.2-2.1-0.5c-0.6-0.3-1.1-0.8-1.4-1.4s-0.5-1.3-0.5-2.1c0-0.8,0.2-1.5,0.5-2.1c0.3-0.7,0.8-1.2,1.4-1.5
				c0.6-0.3,1.3-0.5,2.1-0.5c0.6,0,1.1,0.1,1.5,0.3c0.5,0.2,0.8,0.4,1.1,0.8c0.3,0.3,0.5,0.8,0.6,1.3L9.8,9C9.7,8.6,9.6,8.3,9.4,8.1
				C9.2,7.8,8.9,7.6,8.6,7.5C8.3,7.4,7.9,7.3,7.5,7.3c-0.5,0-0.9,0.1-1.2,0.2C6,7.7,5.7,7.9,5.5,8.1C5.2,8.3,5.1,8.6,5,8.9
				c-0.2,0.5-0.3,1-0.3,1.6c0,0.7,0.1,1.3,0.4,1.8c0.2,0.5,0.6,0.8,1.1,1c0.5,0.2,0.9,0.3,1.5,0.3c0.4,0,0.9-0.1,1.3-0.3
				c0.4-0.2,0.8-0.4,1-0.6v-1.5H7.5z M17,6.5h1v4.5c0,0.8-0.1,1.4-0.3,1.9c-0.2,0.5-0.5,0.8-1,1.1c-0.5,0.3-1.1,0.4-1.8,0.4
				c-0.7,0-1.3-0.1-1.8-0.4c-0.5-0.3-0.8-0.6-1-1.1c-0.2-0.5-0.3-1.1-0.3-2V6.5h1v4.5c0,0.7,0.1,1.2,0.2,1.5
				c0.1,0.3,0.3,0.6,0.7,0.7s0.7,0.3,1.1,0.3c0.8,0,1.3-0.2,1.6-0.5c0.3-0.3,0.5-1,0.5-2V6.5z M19,14.4V6.5h1v7.9H19z"/>
		</g>
	</g>
	<g transform="translate(178.3529,33.6176)" text-rendering="geometricPrecision">
		<g>
			<defs>
				<rect id="SVGID_77_" x="0" y="0" width="63" height="112"/>
			</defs>
			<clipPath id="SVGID_78_">
				<use xlink:href="#SVGID_77_"  overflow="visible"/>
			</clipPath>

				<line clip-path="url(#SVGID_78_)" fill="none" stroke="#000000" stroke-linejoin="round" stroke-miterlimit="10" x1="29" y1="29" x2="29" y2="78"/>
		</g>
		<g>
			<defs>
				<rect id="SVGID_79_" x="0" y="0" width="63" height="112"/>
			</defs>
			<clipPath id="SVGID_80_">
				<use xlink:href="#SVGID_79_"  overflow="visible"/>
			</clipPath>
			<polygon clip-path="url(#SVGID_80_)" fill="#FFFFFF" points="29,29 23,41 35,41 			"/>
		</g>
		<g>
			<defs>
				<rect id="SVGID_81_" x="0" y="0" width="63" height="112"/>
			</defs>
			<clipPath id="SVGID_82_">
				<use xlink:href="#SVGID_81_"  overflow="visible"/>
			</clipPath>
			<polygon clip-path="url(#SVGID_82_)" fill="none" stroke="#000000" stroke-linejoin="round" stroke-miterlimit="10" points="
				29,29 23,41 35,41 			"/>
		</g>
	</g>
	<g transform="translate(123.3529,122.6176)" text-rendering="geometricPrecision">
		<g>
			<defs>
				<rect id="SVGID_83_" x="0" y="0" width="63" height="119"/>
			</defs>
			<clipPath id="SVGID_84_">
				<use xlink:href="#SVGID_83_"  overflow="visible"/>
			</clipPath>

				<line clip-path="url(#SVGID_84_)" fill="none" stroke="#000000" stroke-linejoin="round" stroke-miterlimit="10" x1="29" y1="29" x2="29" y2="86"/>
		</g>
		<g>
			<defs>
				<rect id="SVGID_85_" x="0" y="0" width="63" height="119"/>
			</defs>
			<clipPath id="SVGID_86_">
				<use xlink:href="#SVGID_85_"  overflow="visible"/>
			</clipPath>
			<polygon clip-path="url(#SVGID_86_)" fill="#FFFFFF" points="29,29 23,41 35,41 			"/>
		</g>
		<g>
			<defs>
				<rect id="SVGID_87_" x="0" y="0" width="63" height="119"/>
			</defs>
			<clipPath id="SVGID_88_">
				<use xlink:href="#SVGID_87_"  overflow="visible"/>
			</clipPath>
			<polygon clip-path="url(#SVGID_88_)" fill="none" stroke="#000000" stroke-linejoin="round" stroke-miterlimit="10" points="
				29,29 23,41 35,41 			"/>
		</g>
	</g>
	<g transform="translate(193.3529,122.6176)" text-rendering="geometricPrecision">
		<g>
			<defs>
				<rect id="SVGID_89_" x="0" y="0" width="63" height="119"/>
			</defs>
			<clipPath id="SVGID_90_">
				<use xlink:href="#SVGID_89_"  overflow="visible"/>
			</clipPath>

				<line clip-path="url(#SVGID_90_)" fill="none" stroke="#000000" stroke-linejoin="round" stroke-miterlimit="10" x1="29" y1="29" x2="29" y2="86"/>
		</g>
		<g>
			<defs>
				<rect id="SVGID_91_" x="0" y="0" width="63" height="119"/>
			</defs>
			<clipPath id="SVGID_92_">
				<use xlink:href="#SVGID_91_"  overflow="visible"/>
			</clipPath>
			<polygon clip-path="url(#SVGID_92_)" fill="#FFFFFF" points="29,29 23,41 35,41 			"/>
		</g>
		<g>
			<defs>
				<rect id="SVGID_93_" x="0" y="0" width="63" height="119"/>
			</defs>
			<clipPath id="SVGID_94_">
				<use xlink:href="#SVGID_93_"  overflow="visible"/>
			</clipPath>
			<polygon clip-path="url(#SVGID_94_)" fill="none" stroke="#000000" stroke-linejoin="round" stroke-miterlimit="10" points="
				29,29 23,41 35,41 			"/>
		</g>
	</g>
	<g transform="translate(212.3529,33.6176)" text-rendering="geometricPrecision">
		<g>
			<defs>
				<rect id="SVGID_95_" x="0" y="0" width="88" height="111"/>
			</defs>
			<clipPath id="SVGID_96_">
				<use xlink:href="#SVGID_95_"  overflow="visible"/>
			</clipPath>
			<path clip-path="url(#SVGID_96_)" fill="none" stroke="#000000" stroke-linejoin="round" stroke-miterlimit="10" d="M29,29v26
				c0,0,0,7,7,7 M36,62h12c0,0,7,0,7,7 M55,69v9"/>
		</g>
		<g>
			<defs>
				<rect id="SVGID_97_" x="0" y="0" width="88" height="111"/>
			</defs>
			<clipPath id="SVGID_98_">
				<use xlink:href="#SVGID_97_"  overflow="visible"/>
			</clipPath>
			<polygon clip-path="url(#SVGID_98_)" fill="#FFFFFF" points="29,29 23,41 35,41 			"/>
		</g>
		<g>
			<defs>
				<rect id="SVGID_99_" x="0" y="0" width="88" height="111"/>
			</defs>
			<clipPath id="SVGID_100_">
				<use xlink:href="#SVGID_99_"  overflow="visible"/>
			</clipPath>
			<polygon clip-path="url(#SVGID_100_)" fill="none" stroke="#000000" stroke-linejoin="round" stroke-miterlimit="10" points="
				29,29 23,41 35,41 			"/>
		</g>
	</g>
	<g transform="translate(300.3529,122.6176)" text-rendering="geometricPrecision">
		<g>
			<defs>
				<rect id="SVGID_101_" x="0" y="0" width="133" height="119"/>
			</defs>
			<clipPath id="SVGID_102_">
				<use xlink:href="#SVGID_101_"  overflow="visible"/>
			</clipPath>
			<path clip-path="url(#SVGID_102_)" fill="none" stroke="#000000" stroke-linejoin="round" stroke-miterlimit="10" d="M29,29v35
				c0,0,0,7,7,7 M36,71h56c0,0,7,0,7,7 M99,78v8"/>
		</g>
		<g>
			<defs>
				<rect id="SVGID_103_" x="0" y="0" width="133" height="119"/>
			</defs>
			<clipPath id="SVGID_104_">
				<use xlink:href="#SVGID_103_"  overflow="visible"/>
			</clipPath>
			<polygon clip-path="url(#SVGID_104_)" fill="#FFFFFF" points="29,29 23,41 35,41 			"/>
		</g>
		<g>
			<defs>
				<rect id="SVGID_105_" x="0" y="0" width="133" height="119"/>
			</defs>
			<clipPath id="SVGID_106_">
				<use xlink:href="#SVGID_105_"  overflow="visible"/>
			</clipPath>
			<polygon clip-path="url(#SVGID_106_)" fill="none" stroke="#000000" stroke-linejoin="round" stroke-miterlimit="10" points="
				29,29 23,41 35,41 			"/>
		</g>
	</g>
	<g transform="translate(35.3529,32.6176)" text-rendering="geometricPrecision">
		<g>
			<defs>
				<rect id="SVGID_107_" x="0" y="0" width="171" height="115"/>
			</defs>
			<clipPath id="SVGID_108_">
				<use xlink:href="#SVGID_107_"  overflow="visible"/>
			</clipPath>
			<path clip-path="url(#SVGID_108_)" fill="none" stroke="#000000" stroke-linejoin="round" stroke-miterlimit="10" d="M138,29v32
				c0,0,0,7-7,7 M131,68H36c0,0-7,0-7,7 M29,75v7"/>
		</g>
		<g>
			<defs>
				<rect id="SVGID_109_" x="0" y="0" width="171" height="115"/>
			</defs>
			<clipPath id="SVGID_110_">
				<use xlink:href="#SVGID_109_"  overflow="visible"/>
			</clipPath>
			<polygon clip-path="url(#SVGID_110_)" fill="#FFFFFF" points="138,29 132,41 144,41 			"/>
		</g>
		<g>
			<defs>
				<rect id="SVGID_111_" x="0" y="0" width="171" height="115"/>
			</defs>
			<clipPath id="SVGID_112_">
				<use xlink:href="#SVGID_111_"  overflow="visible"/>
			</clipPath>
			<polygon clip-path="url(#SVGID_112_)" fill="none" stroke="#000000" stroke-linejoin="round" stroke-miterlimit="10" points="
				138,29 132,41 144,41 			"/>
		</g>
	</g>
	<g transform="translate(35.3529,238.6176)" text-rendering="geometricPrecision">
		<g>
			<defs>
				<rect id="SVGID_113_" x="0" y="0" width="63" height="82"/>
			</defs>
			<clipPath id="SVGID_114_">
				<use xlink:href="#SVGID_113_"  overflow="visible"/>
			</clipPath>

				<line clip-path="url(#SVGID_114_)" fill="none" stroke="#000000" stroke-linejoin="round" stroke-miterlimit="10" stroke-dasharray="4" x1="29" y1="48" x2="29" y2="29"/>
		</g>
	</g>
	<g transform="translate(376.3529,238.6176)" text-rendering="geometricPrecision">
		<g>
			<defs>
				<rect id="SVGID_115_" x="0" y="0" width="63" height="82"/>
			</defs>
			<clipPath id="SVGID_116_">
				<use xlink:href="#SVGID_115_"  overflow="visible"/>
			</clipPath>

				<line clip-path="url(#SVGID_116_)" fill="none" stroke="#000000" stroke-linejoin="round" stroke-miterlimit="10" stroke-dasharray="4" x1="29" y1="48" x2="29" y2="29"/>
		</g>
	</g>
</g>
</svg>
